<svg xmlns="http://www.w3.org/2000/svg" width="800" height="788" viewBox="0 0 600 591"><g fill="#fcfaf4"><path d="M291.8.7c2.8.2 7.6.2 10.5 0 2.8-.2.5-.3-5.3-.3s-8.1.1-5.2.3zm17 0c.7.3 1.6.2 1.9-.1.4-.3-.2-.6-1.3-.5l-1.9.1 1.3.5zm-33.5 1c.4.3 1 .3 1.4 0 .3-.4 0-.7-.7-.7s-1 .3-.7.7zm11 30.9c.3.3 6.6.7 14.1.8l13.5.3-.5-.9c-.3-.4-6.6-.8-14.1-.8s-13.4.3-13 .6zm-8 1.1c.9.2 2.3.2 3 0 .6-.3-.1-.5-1.8-.5h-3l1.8.5zM155 37.5c-1.4.8-2 1.4-1.4 1.5.5 0 1.9-.7 3-1.5 2.4-1.8 1.6-1.9-1.6 0zm287.5-.5c.3.5.8 1 1.1 1 .3 0 .2-.5-.1-1-.3-.6-.8-1-1.1-1-.3 0-.2.4.1 1zm2.6 1.4c.2.2 1.5.9 2.9 1.5l2.5 1.2-1.9-1.5c-1.1-.9-2.4-1.6-3-1.6-.5 0-.7.2-.5.4zm-305 7.3c-5.1 3.2-15 10.1-21.9 15.3l-12.7 9.4-17.1 17.1C71.5 104.4 62 115.7 51 132c-6.4 9.6-16.3 26.5-17.3 29.5l-.7 2 1.5-1.9c.8-1.1 1.5-2.3 1.5-2.8 0-1.1 13.3-22.9 18.9-30.8 14.1-20.2 37.8-45.5 57.6-61.3 9-7.2 20.7-15.5 36.1-25.4 1.1-.6 1.6-1.2 1.3-1.2-.3-.1-4.7 2.5-9.8 5.6zM452 41.3c0 .2 5.5 4 12.3 8.5 6.7 4.5 17.2 12.1 23.2 16.9 19.7 15.7 43.5 41 57.6 61.3 5.6 7.9 18.9 29.7 18.9 30.8 0 .5.7 1.7 1.5 2.8l1.5 1.9-.7-2c-1-3-10.9-19.9-17.3-29.5-10.9-16.1-20.4-27.6-36.9-44.1C503 78.8 491.2 68.1 486 64c-12.3-9.4-34-24-34-22.7zM286.2 58.2c-.6.6-1.2 1.9-1.2 2.7v1.6l12.3.1h12.4l-.5-2.3-.4-2.3h1.1c.6 0 1.3 1 1.6 2.3l.6 2.3h3.3l3.2-.1-.4-2.2-.4-2.1-4.1-.6c-2.3-.3-9.2-.5-15.2-.6l-11-.1-1.3 1.3zm-7 2l.3 2.3 2.3.3 2.2.3V58h-5.1l.3 2.2zM182 60c0 .7.3 1 .7.7.3-.4.3-1 0-1.4-.4-.3-.7 0-.7.7zm-2 1c0 .7.3 1 .7.7.3-.4.3-1 0-1.4-.4-.3-.7 0-.7.7zm238.4-.1c.4.6 1.6 1.6 2.8 2.2l2 1.1-.6-1.1c-.4-.6-1.6-1.6-2.8-2.2l-2-1.1.6 1.1zm-240.8 1.8l-.7 1.8 1.2-1.2c.7-.7 1-1.5.7-1.8-.3-.3-.9.2-1.2 1.2zM424 64c0 .7.3 1 .7.7.3-.4.3-1 0-1.4-.4-.3-.7 0-.7.7zm2.6 1.5c.4.8 1.1 1.5 1.6 1.5 1.7 0 27.7 16.9 36.8 23.9 7.8 6 31.1 28.4 37.1 35.6 5.7 6.8 15.7 20.3 19 25.5 8.3 12.9 7.3 11.3 13.3 22.2 8.6 15.7 18.1 40.6 23.1 60.5 1.4 5.6 3.5 16.4 4.6 24l2.1 13.8.3 21c.4 22-.3 30.6-3.6 49.5-3.9 22.4-8.2 37.2-16.5 57.2-13 30.9-33 60.5-57.5 84.9-10.4 10.3-29.8 26.6-34.9 29.2-1.4.7-5.6 3.3-9.5 5.8-14.7 9.5-33.5 19.2-47.7 24.4-2.7 1-4.8 2.2-4.8 2.6 0 1.2.6 1.1 2.8-.1.9-.5 5.5-2.4 10.2-4.1 16.2-6.1 43.5-21.7 60.4-34.6 15.7-11.9 38-34.6 51.1-51.8 3.5-4.6 13.7-20.2 17.7-27.2 4.1-7.1 11.3-22.2 15.8-32.9 8.6-20.7 15.7-50.1 17.9-74 1-10 .7-46.6-.4-53.9-3.6-24.9-8.5-45.5-15.2-63.5-12.5-33.4-31.5-63.7-57.8-91.9-6.3-6.8-26.1-23.9-35.7-30.9-3.1-2.3-5.9-4.2-6.2-4.2-.2 0-4-2.2-8.3-4.9-4.3-2.6-9.7-5.8-12-7l-4.2-2.1.5 1.5zm-256.3 1.2c.4.3 1 .3 1.4 0 .3-.4 0-.7-.7-.7s-1 .3-.7.7zm-14.6 7.6c-30.9 18.9-59.5 47.2-80.8 80.2-7.8 12.2-18.3 32.7-23.7 46.7-7.5 19-13.6 43.7-16.7 66.8-1.1 8.2-1.4 44.3-.4 54.4 2.2 24.4 9.4 53.6 18.3 74.9 8 19.1 14.4 31 26.2 49.2 8.8 13.6 21 27.9 36 42.6 11.6 11.2 34.6 29.9 36.9 29.9.3 0 4.2 2.3 8.6 5.1 9.8 6.1 27.6 15.1 34.4 17.4 2.7.9 5.5 2.1 6.2 2.7.7.6 1.3.7 1.3.2 0-.5-5.3-3.4-11.8-6.4-12.8-6-22.4-11.3-37.6-20.9-33.6-21.2-66.5-57.4-86.5-95-13.7-25.8-21.9-49.9-27-79.1-3.3-19-4-27.5-3.6-49.5l.3-21 2.1-13.8c3-20 7-35.1 15-56.4 4.5-12.1 14.1-31.7 20.5-41.8 7.4-11.6 9.7-14.9 15.5-22.5 9.4-12.3 10.3-13.2 25.1-28l13.5-13.5L139 88c6.3-4.7 12.6-9.1 14-9.9 10-5.8 17.6-11.2 15.4-11-.5 0-6.2 3.2-12.7 7.2zm37.3 8.2l-4.5 2.4 2.1.1c1.2 0 2.4.7 2.8 1.5l.6 1.5 3.5-2.2 3.5-2.3-.3-1.5c-.4-2.3-2.8-2.2-7.7.5zm92.5-1.2l-10 1.2v6.8l23-.1h23l.6-2.4.6-2.3.5 3 .5 3 .2-3.7c0-2-.3-4-.9-4.3-.5-.3-1 0-1 .7v1.3l-.8-1.1c-1.5-2.5-22.3-3.6-35.7-2.1zm13.5 2.1c0 .2.3 1.1.6 2l.6 1.6h-6l.5-2 .5-2h1.9c1.1 0 1.9.2 1.9.4zm104 .1l-1.2 1.5 2.8 1 2.7 1.1 1.6-1.6 1.6-1.6-1.5-.9c-2.2-1.4-4.6-1.2-6 .5z"/><path d="M409.6 86.8c-1.1 1.4-1.4 2.2-.8 1.8l1.2-.7v1.2c0 .7.3 1 .6.7.3-.4 3.4 1.4 7 3.8 3.5 2.4 6.6 4.4 6.8 4.4.8 0 14.1 9.3 20.2 14.1 3.4 2.7 6.7 4.9 7.2 4.9.6 0 7.5 6.4 15.4 14.3l14.3 14.3 9 12.2c12.1 16.4 22.2 34.2 28.5 50.2 7.9 20 12.7 37.4 15.7 56.5l1.8 12-.1 22.5v22.5l-2.7 15.5c-2.8 16.1-6.7 31.1-11.3 43.4-4.4 12-16.9 36.6-23.6 46.6-9.4 14.1-20.2 27.2-32.4 39.2-12.3 12.1-29.1 24.8-47 35.5-5.2 3.2-26.5 13.6-34.2 16.9l-4.3 1.8-1.5 2.8-1.5 2.8h2.1c1.2 0 1.9-.3 1.6-.8-.2-.4.2-1.8 1-3.2l1.5-2.5-.6 2.2-.6 2.3 3.3-.6c5-.9 8.2-2.2 22.3-9.1 12.1-6 28.7-16.3 38-23.7 2.2-1.7 5.3-3.8 6.9-4.6 4.4-2.3 31.3-29.4 38.1-38.5 9.9-13.2 16.4-23.4 23.1-36.1 12.4-23.5 18-39.4 24.3-68.9 2.7-13 3.6-24.5 3.5-47v-20l-1.8-11.5c-6.2-41.5-22.1-79.1-48.1-113.5-3.3-4.4-12.5-14.5-20.5-22.5l-14.5-14.6-11.5-8c-13-9.1-19.9-13.4-28.5-17.9l-6.1-3.2-1.8 2.5zm-229.5 2.4c-4.1 2.2-8 4.5-8.5 5-1.1.8-10 6.9-21.6 14.6-7.3 4.8-33.9 31.6-41.5 41.7-9.9 13.1-17.5 25.2-24.5 39.1C72.3 212.5 64.3 238 60.4 264l-1.8 11.5v20c-.1 25.5.6 33.1 5 54 7.6 35.7 23.2 68.4 47.4 99.9 7.7 10 30.2 32.2 38 37.5 3 2.1 10 6.9 15.5 10.8 8.3 5.9 15.4 10.2 25.5 15.4 4.1 2.1 11 5 11.6 4.9.4-.1 1 .2 1.3.8.3.5 2.1 1.4 3.9 2l3.3 1.1.5-1.4c.3-.8.3-2-.1-2.7-.4-.7.1-.4.9.6 1.8 2.2 2.1 4 .6 3.1-.5-.3-1-.2-1 .4 0 .5.8.9 1.8.9.9 0 2.5.3 3.6.7l1.8.8-1.6-3-1.5-3.1-7.8-3.2c-4.3-1.7-9.6-4.2-11.8-5.5-2.2-1.2-5.8-3.3-8-4.5-12.1-6.7-18.5-10.9-28.2-18.1-3.2-2.5-7.6-5.7-9.9-7.2-5.6-3.8-26.9-25.5-34.5-35.2-10-12.7-17.9-25-25-39-11.8-23.5-18-42.2-22.5-67.9l-2.6-15.1-.4-20-.3-20 1.9-14c1-7.7 2.2-15.4 2.5-17C70.8 240 76.1 222.7 82 208c6.3-16.1 16.4-33.8 28.5-50.1l9-12.2 13.2-13.3c7.3-7.3 15.1-14.5 17.5-16 2.4-1.5 6.1-4.2 8.3-5.9 7.2-5.8 29.3-20.4 29.9-19.8.3.4.6.1.6-.6v-1.2l1.3.6c.6.4.3-.1-.8-1s-1.9-2.1-1.7-2.6c.1-.5.1-.9 0-.9-.2 0-3.6 1.9-7.7 4.2zM382 101.4c0 1.9.5 3.8 1 4.1l1 .6v-2.5c0-1.3.3-3.1.6-4l.6-1.6H382v3.4z"/><path d="M205.9 102.8c-8.3 3.9-21.9 11.7-29.4 17.1-6.2 4.4-20.5 16.2-22.4 18.4-.7 1-2 1.7-2.7 1.7-.8 0-1.4.4-1.4 1 0 .5.7 1 1.5 1s1.5-.5 1.5-1c0-.6.6-1 1.4-1 .7 0 3-1.8 5-4s4-4 4.5-4c.6 0 1.6-.8 2.3-1.8.7-.9 2.1-2.2 3-2.7.8-.6 6.4-4.3 12.3-8.3l10.8-7.3 1.6 1.7 1.6 1.6-1 .4c-2.3.9-19.5 13.7-19.5 14.5 0 .5-.5.9-1.1.9-1.5 0-4.6 2.5-18.1 14.7-6.5 5.9-11.8 11.1-11.8 11.6s-1.1 1.8-2.5 2.9c-1.4 1.1-2.5 2.6-2.5 3.4 0 .8-.4 1.4-.9 1.4-1.1 0-9.1 10.5-9.1 12 0 .5-.4 1-.8 1-1.3 0-12.6 19.4-17.1 29.2-5.3 11.4-10.6 26.9-13.7 39.3-2.6 10.9-2.9 12.9-1.5 12.1.5-.4 1.2-2.5 1.6-4.9 2.1-12.5 10.5-36.8 17.7-51.1 8.4-16.6 22.7-36.7 34.2-48 19.8-19.3 36.8-32.1 56.9-43 3.3-1.7 6.6-3.6 7.6-4.1l1.6-1 .3-3.6.3-3.6h-1.4c-.7 0-4.7 1.6-8.8 3.5zm179.3.4l.3 3.3 10.6 6c13.8 7.9 19.8 11.7 28.9 18.7 8.3 6.3 29.1 25.3 33.7 30.8 9.9 11.8 20.7 28 27.1 40.6 7.2 14.3 15.6 38.6 17.7 51.1.4 2.4 1.1 4.5 1.6 4.9 1.4.8 1.1-1.2-1.5-12.1-3.1-12.4-8.4-27.9-13.7-39.3-4.5-9.8-15.8-29.2-17.1-29.2-.4 0-.8-.6-.8-1.3 0-.7-1.3-2.7-3-4.5-1.6-1.8-3-3.7-3-4.3 0-.5-.9-1.4-2-2.1-1.1-.7-2-1.8-2-2.5 0-.6-1.1-2-2.5-3.1s-2.5-2.4-2.5-2.9c0-1.3-27.6-26.3-29.1-26.3-.4 0-2.1-1.4-3.9-3-1.8-1.7-3.8-3-4.5-3-.7 0-1.5-.4-1.7-.8-.1-.5-4-3.3-8.5-6.4l-8.3-5.4 1.2-1.2c.7-.7 1.6-1.2 2.1-1.2 1.5 0 12.5 6.8 20.4 12.7 4 2.9 7.6 5.3 8 5.3.5 0 1.4.9 2.1 2 .7 1.1 1.7 2 2.2 2 .6 0 2.6 1.8 4.6 4 2 2.2 4.2 4 4.9 4 .7 0 1.5.6 1.8 1.2.2.7.7 1 1.1.6 1.1-1-13.6-13.9-24.9-21.9-12.7-8.9-33.4-19.9-37.4-19.9h-2.2l.3 3.2zm-102.4 3l-6.8 1v6.8h15.9l.6-1 .6-1H282v-3.7l4.6-.7c5.9-.8 20.7-.8 25.7 0l3.7.7v3.7h-4.1l.6 1c.7 1.1 5.7 1.3 9.3.4 2.1-.6 3.2-3.4 1.2-3.4-.5 0-1-.6-1-1.3v-1.4l-5.7-1c-7.3-1.3-24.8-1.4-33.5-.1zm-8.7 3.4l.1 1.9.5-1.3c.3-.7.2-1.6-.1-1.9-.3-.4-.6.2-.5 1.3zm95.7 13.7l.4 3.4 6.6 3.4c3.7 1.9 11.4 6.2 17.1 9.6 5.8 3.5 10.6 6.3 10.8 6.3.2 0 .3-.5.3-1 0-.6-.7-1-1.5-1s-1.5-.5-1.5-1c0-.6-.7-1-1.5-1s-1.5-.4-1.5-1c0-.5-1.1-1.2-2.5-1.6-1.4-.3-2.5-1-2.5-1.4 0-.5-1-1.2-2.2-1.6-1.2-.3-2.6-1.1-3.2-1.6-.6-.5-3.4-2.4-6.3-4.1l-5.2-3.2.8-1.3.8-1.3 5.4 2.4c3 1.3 8.9 4.5 13.2 7.1 4.3 2.5 8.2 4.6 8.7 4.6.4 0 1 .7 1.4 1.5.3.8 1.2 1.5 2 1.5s1.6.5 1.8 1.1c.2.7 1 1 1.7.8l1.3-.5-7.1-5.1c-7.6-5.4-29.8-16.9-34.8-17.9l-2.9-.6.4 3.5z"/><path d="M222.4 122.5c-6.8 2-25.7 12.6-33.4 18.7l-3.5 2.8h1.8c.9 0 1.7-.5 1.7-1 0-.6.4-1 .9-1 .9 0 9.9-5.7 11.1-6.9.3-.4 4.9-2.8 10.2-5.4 8.9-4.5 11.8-5.1 11.8-2.7 0 .5-1.5 1.7-3.2 2.6-1.8.9-3.5 2-3.8 2.3-.3.4-2 1.3-3.7 2-1.8.8-3.3 1.7-3.3 2.1 0 .4-1.1 1.1-2.5 1.4-1.4.4-2.5 1.1-2.5 1.6 0 .6-.7 1-1.5 1s-1.5.4-1.5 1c0 .5-.7 1-1.5 1s-1.5.4-1.5 1c0 .5-.7 1-1.5 1s-1.5.4-1.5 1c0 .5.2 1 .5 1 .2 0 3.5-2 7.2-4.4 3.7-2.4 10.6-6.3 15.2-8.8 4.7-2.5 8.9-5.2 9.5-6l1-1.6-1-2-.9-2-4.1 1.3zm145.7 1.1l.1 1.9.5-1.3c.3-.7.2-1.6-.1-1.9-.3-.4-.6.2-.5 1.3zm-222.6 21.5c-.4.6-.5 1.3-.2 1.6.7.7 2.7-.6 2.7-1.8 0-1.2-1.7-1.2-2.5.2zm307.7 0c.2.7 1 1.5 1.7 1.7l1.4.4-.5-1.3c-.2-.7-1-1.5-1.7-1.7l-1.3-.5.4 1.4zm-271.3 1.5l-1.3 1.6 1.8-.3c1.1-.2 2.1-1 2.4-1.7.5-1.7-1.3-1.5-2.9.4zm233.3-.4c.3.7 1.3 1.5 2.4 1.7l1.8.3-1.3-1.6c-1.6-1.9-3.4-2.1-2.9-.4zM191 148c0 .5.4 1 .9 1 .6 0 1.3-.5 1.6-1l.6-1h-1.5c-.9 0-1.6.4-1.6 1zm215.5 0c.3.5 1 1 1.6 1 .5 0 .9-.5.9-1 0-.6-.7-1-1.6-1h-1.5l.6 1zm-266.4 3.4c-1.9 2-3.1 3.9-2.7 4.3.9.9 6.9-5.2 6.5-6.6l-.4-1.2-3.4 3.5zm316.9-2.3c0 1.9 5.7 7.5 6.7 6.5.4-.3-1-2.3-3-4.4l-3.7-3.7v1.6zM176.5 151l-1.8 2h1.4c1.6 0 3.9-1.9 3.9-3.2 0-1.4-1.6-.9-3.5 1.2zm243.5-1.2c0 1.3 2.3 3.2 3.9 3.2h1.4l-1.8-2c-1.9-2.1-3.5-2.6-3.5-1.2zM187 151c0 .5.4 1 .9 1 .6 0 1.3-.5 1.6-1l.6-1h-1.5c-.9 0-1.6.4-1.6 1zm223.5 0c.3.5 1 1 1.6 1 .5 0 .9-.5.9-1 0-.6-.7-1-1.6-1h-1.5l.6 1zM182 154.5c-2.1 2.5-.1 3.1 2.3.7l2.1-2.2h-1.6c-.8 0-2.1.7-2.8 1.5zm233.8.7c1.2 1.2 2.4 1.9 2.8 1.5 1-1-1.6-3.7-3.4-3.7h-1.6l2.2 2.2zm-249.7 5.3c-3.5 3.6-6.1 6.8-5.8 7.2.7.6 13.6-11.6 13.7-13 0-1.7-1.9-.3-7.9 5.8zm259.9-5.8c.1 1.4 13 13.6 13.7 13 .3-.4-2.3-3.6-5.8-7.2-6-6.1-7.9-7.5-7.9-5.8zm-294.1 6.4c-4.5 5.7-10.7 14.3-14 19.4-5.2 8.1-13.8 25.3-18.3 36.5-3.8 9.6-9.6 28.5-9.6 31.2 0 .5.3.8.8.8.4 0 1.8-4.2 3.1-9.3 1.3-5 3.9-13.2 5.8-18.2 3.6-9.4 12.3-28.6 13.4-29.5.3-.3 1.2-1.6 1.9-3s3.5-5.8 6.1-9.8c2.7-4 4.9-7.4 4.9-7.7 0-.2 1.4-1.9 3-3.7 1.7-1.8 3-3.6 3-4.1 0-.5 1-1.7 2.1-2.6 1.2-1 2-2.3 1.8-3l-.5-1.3-3.5 4.3zm333.1-2.7c0 .9.9 2.1 2 2.8 1.1.7 2 1.7 2 2.3 0 .6 1.4 2.5 3 4.3 1.7 1.8 3 3.5 3 3.7 0 .3 2.2 3.7 4.9 7.7 2.6 4 5.4 8.4 6.1 9.8.7 1.4 1.6 2.7 1.9 3 1.1.9 9.8 20.2 13.4 29.5 1.9 5 4.2 12 5.2 15.7 1 3.8 2.2 6.8 2.6 6.8.5 0 .9-.2.9-.4s-1.1-4.3-2.5-9.2c-4.8-16.3-15.5-40.1-24.4-53.9-3.7-5.8-16.1-22.4-17.2-23-.5-.4-.9.1-.9.9zm-294.9 7c-2.9 3-5.2 5.9-5 6.5.2.6 3.3-1.8 6.9-5.4l6.4-6.5h-1.5c-.8 0-3.9 2.4-6.8 5.4zm257.9 1.1c3.6 3.6 6.7 6 6.9 5.4.5-1.5-9.9-11.9-11.8-11.9h-1.5l6.4 6.5zm-400.4 6.9c-3.6 7.5-3.2 8.5.5 1.2 1.6-3.2 2.8-6.1 2.5-6.3-.2-.2-1.6 2-3 5.1zm541.4-5.2c0 .8 5.9 12.5 6 11.6 0-.9-3.6-8.9-4.9-10.8-.6-.8-1.1-1.2-1.1-.8zm-412.4 2.7c-1.1 1.2-1.6 2.4-1.2 2.8.9.9 3.9-2.2 3.4-3.7l-.4-1.2-1.8 2.1zm284.4-.7c0 1.8 2.7 4.4 3.7 3.4.4-.4-.3-1.6-1.5-2.9l-2.2-2.1v1.6zm-291.5 8.4c-2.7 2.9-13.1 18.2-14.1 20.7l-.6 1.7h1c.6 0 1.4-1 1.8-2.2.3-1.2 1.5-3.1 2.5-4.2 1.1-1.1 2.5-3.2 3.1-4.8.7-1.5 1.6-2.8 2-2.8.5 0 .8-.6.8-1.4 0-.8.7-1.6 1.5-2 .8-.3 1.5-1.2 1.5-2s.9-1.8 2-2.1c1.1-.3 2-1.3 2-2.1s-.2-1.4-.5-1.4-1.7 1.1-3 2.6zm9.7-1.4c-.7.7-1.2 1.9-1.2 2.7v1.4l2-1.8c2.1-1.9 2.6-3.5 1.2-3.5-.4 0-1.3.5-2 1.2zm278.8-.4c0 .5.9 1.7 2 2.7l2 1.8v-1.4c0-1.6-1.9-3.9-3.2-3.9-.4 0-.8.4-.8.8zm9 .4c0 1.8 1.8 3.4 2.8 2.4.3-.4-.2-1.4-1.1-2.3l-1.7-1.7v1.6zm4 4.1c0 1 .7 2 1.5 2.3.8.4 1.5 1.2 1.5 2s.3 1.4.8 1.4c.4 0 1.3 1.3 2 2.8.6 1.6 2 3.7 3.1 4.8 1 1.1 2.2 3 2.5 4.2.7 2.1 2.6 3.1 2.6 1.4 0-1-10.5-17-12.6-19.2l-1.4-1.4v1.7z"/><path d="M23.1 183.2c-.5 1.3-1.6 4-2.5 6.2-1.5 3.7-2.1 6.4-1.1 5.5.8-.9 5.5-13.9 5-13.9-.3 0-.9 1-1.4 2.2zm554.4 4.2c1.4 3.9 2.8 7.2 3 7.5 1.1 1 .4-2-1.7-7-3.2-8.1-4.3-8.4-1.3-.5zM155 183.6v1.5l1-.6c.6-.3 1-1 1-1.6 0-.5-.4-.9-1-.9-.5 0-1 .7-1 1.6zm288-.7c0 .6.5 1.3 1 1.6l1 .6v-1.5c0-.9-.4-1.6-1-1.6-.5 0-1 .4-1 .9zm-291 4.6c0 .8-.7 1.5-1.6 1.5-.9 0-1.8.9-2.1 2-.3 1.1-.9 2-1.4 2-.5 0-.9.7-.9 1.5s-.4 1.5-1 1.5c-.5 0-1 .8-.9 1.7v1.8l1.7-2.5c.9-1.4 3.2-4 5-5.9 3.3-3.6 4-5.1 2.2-5.1-.5 0-1 .7-1 1.5zm294-.6c0 .6.5 1.3 1 1.6l1 .6v-1.5c0-.9-.4-1.6-1-1.6-.5 0-1 .4-1 .9zm3 4c0 .6.5 1.3 1 1.6l1 .6v-1.5c0-.9-.4-1.6-1-1.6-.5 0-1 .4-1 .9zm3 2.8c0 .5.9 1.9 2 3.3l2 2.5v-1.8c0-.9-.4-1.7-1-1.7-.5 0-1-.7-1-1.5s-.4-1.5-1-1.5c-.5 0-1 .3-1 .7zm-434.9 5.4c-.6 1.8-.9 3.4-.7 3.6.2.2.9-1 1.5-2.8.6-1.8.9-3.4.7-3.6-.2-.2-.9 1-1.5 2.8zm564.5-1.1c.3 1.4 1.1 3.2 1.6 4l.9 1.5-.7-2.5c-.3-1.4-1.1-3.2-1.6-4l-.9-1.5.7 2.5zM141 202.6v1.5l1-.6c.6-.3 1-1 1-1.6 0-.5-.4-.9-1-.9-.5 0-1 .7-1 1.6zm316-.8c0 .5.7 1.7 1.5 2.8 1.5 1.9 2 .8.9-2-.6-1.7-2.4-2.2-2.4-.8zm-326.9 7.1c-1.7 3.3-3.1 6.3-3.1 6.6 0 .3.4.5.8.5 1.1 0 6.7-11.8 5.9-12.6-.3-.3-1.9 2.1-3.6 5.5zM466 204c0 1.6 5.4 12 6.2 12 .4 0 .8-.2.8-.5 0-1-6-12.5-6.5-12.5-.3 0-.5.4-.5 1zm-451 1c0 .7.3 1 .7.7.3-.4.3-1 0-1.4-.4-.3-.7 0-.7.7zm569 0c0 .7.3 1 .7.7.3-.4.3-1 0-1.4-.4-.3-.7 0-.7.7zm-449 8c-1.8 3.8-3.1 7.2-2.7 7.6.3.3 2.2-2.6 4.1-6.5 2-3.9 3.6-7.3 3.6-7.6 0-.3-.4-.5-.8-.5-.5 0-2.3 3.1-4.2 7zm-121.4-3.4c-.4 1.4-.5 2.8-.3 3.1.3.2.8-.8 1.1-2.3.4-1.4.5-2.8.3-3.1-.3-.2-.8.8-1.1 2.3zm571.5-1.6c0 .8.4 2.4.9 3.5l.9 2V212c0-.8-.4-2.4-.9-3.5l-.9-2v1.5zm-124.1.5c0 .3 1.4 3.3 3.1 6.6 1.7 3.4 3.3 5.8 3.6 5.5.8-.8-4.8-12.6-5.9-12.6-.4 0-.8.2-.8.5zm-449.3 6.9c-.4 1-.7 2.5-.6 3.4v1.7l1-2.4c.5-1.3.8-2.9.6-3.5-.2-.5-.6-.2-1 .8zm575.4-.4c0 .8.4 2.4.9 3.5l.9 2v-2c0-1.1-.4-2.7-.9-3.5l-1-1.5.1 1.5zm-462.5 5.9c-.4.7-.5 1.5-.2 1.8.9.9 1.9-.4 1.4-1.8l-.4-1.3-.8 1.3zm349.4-.2c0 1.6 2.5 7.3 3.2 7.3 1.1 0 1-.5-.6-4.5-1.4-3.2-2.6-4.5-2.6-2.8zM9 226c-.7 2.8-1 5.3-.8 5.5.3.3 1-1.8 1.6-4.7.7-2.8 1.1-5.3.8-5.5-.2-.2-.9 1.9-1.6 4.7zm580.1-4.5c0 .5.6 3.2 1.3 6 .8 2.7 1.4 4.1 1.4 3 0-2.1-2.5-10.7-2.7-9zm-459.5 3.1c-1.1 2.8-.6 3.9.9 2 .8-1.1 1.5-2.3 1.5-2.8 0-1.4-1.8-.9-2.4.8zm338.4-.8c0 .5.7 1.7 1.5 2.8 1.5 1.9 2 .8.9-2-.6-1.7-2.4-2.2-2.4-.8zm-345.4 2.1c-.4.7-.5 1.5-.2 1.8.9.9 1.9-.4 1.4-1.8l-.4-1.3-.8 1.3zm-2.1 5.2c-1.4 4-3.5 10.2-3.5 10.5 0 .2.4.4.8.4 1 0 4.6-11 3.8-11.7-.3-.3-.8 0-1.1.8zm5.1 4.5c-1 3.1-1.5 5.8-1.2 6.1.6.6.6.5 3.1-6.6 1.7-5.1 1.8-5.1.7-5.1-.5 0-1.6 2.5-2.6 5.6zm345.4-5.2c0 .3 2.1 6.5 3.5 10.5.3.8.8 1.1 1.1.8.8-.7-2.8-11.7-3.8-11.7-.4 0-.8.2-.8.4zm7 .2c0 2 2.5 8.4 3.2 8.4h.9l-.7-2.3c-1.3-4.3-2.4-6.7-2.9-6.7-.3 0-.5.3-.5.6zM6 238.4c-.6 3.1-1 6.2-.8 6.8.3.7 1-1.6 1.7-5.1.7-3.4 1-6.5.8-6.8-.3-.2-1 2.1-1.7 5.1zm586.2-3.9c0 1.1.6 4.2 1.4 7l1.3 5-.5-4.9c-.3-2.7-.9-5.8-1.4-7l-.9-2.1.1 2zm-475.6 9.4c-.4.7-.5 1.5-.2 1.8.9.9 1.9-.4 1.4-1.8l-.4-1.3-.8 1.3zm6 1.7c-.9 3.6.1 4.3 1.4 1 1.2-3.3 1.2-3.6.1-3.6-.5 0-1.2 1.2-1.5 2.6zm352.4-2.2c0 1.4 2.1 5.8 2.6 5.4.8-.8-.7-5.8-1.7-5.8-.5 0-.9.2-.9.4zm7 1c0 .9.5 1.6 1 1.6.6 0 1-.4 1-.9 0-.6-.4-1.3-1-1.6l-1-.6v1.5zm27 2.5c0 1.2.5 2.1 1 2.1.6 0 1-.6 1-1.4 0-.8-.4-1.8-1-2.1l-1-.6v2zm-393.4 1c-.4.7-.5 1.5-.2 1.8.9.9 1.9-.4 1.4-1.8l-.4-1.3-.8 1.3zm367.4.5c0 .9.5 1.6 1 1.6.6 0 1-.4 1-.9 0-.6-.4-1.3-1-1.6l-1-.6v1.5zM3.5 253c-.4 2.8-.5 5.4-.2 5.6.3.3.8-1.8 1.2-4.6.4-2.8.5-5.4.2-5.6-.3-.3-.8 1.8-1.2 4.6zm591.7-2.5c0 1.6.4 4.3.8 6l.8 3v-3c0-1.7-.4-4.4-.8-6l-.8-3v3zm-505.6.4c-.4.7-.5 1.5-.2 1.8.9.9 1.9-.4 1.4-1.8l-.4-1.3-.8 1.3zm31.4.7v1.5l1-.6c.6-.3 1-1 1-1.6 0-.5-.4-.9-1-.9-.5 0-1 .7-1 1.6zm356-.7c0 .6.5 1.3 1 1.6l1 .6v-1.5c0-.9-.4-1.6-1-1.6-.5 0-1 .4-1 .9zm33 .5c0 .9.5 1.6 1 1.6.6 0 1-.4 1-.9 0-.6-.4-1.3-1-1.6l-1-.6v1.5zm-395.4.5c-.4.7-.5 1.5-.2 1.8.9.9 1.9-.4 1.4-1.8l-.4-1.3-.8 1.3zm369.4.5c0 .9.5 1.6 1 1.6.6 0 1-.4 1-.9 0-.6-.4-1.3-1-1.6l-1-.6v1.5zm-364 3.2v1.5l1-.6c.6-.3 1-1 1-1.6 0-.5-.4-.9-1-.9-.5 0-1 .7-1 1.6zm358-.7c0 .6.5 1.3 1 1.6l1 .6v-1.5c0-.9-.4-1.6-1-1.6-.5 0-1 .4-1 .9zm-389.5 1.4c-.4 1-.5 2.1-.1 2.4 1 1 1.8-.4 1.3-2.4l-.4-1.8-.8 1.8zm25 0c-.4 1-.5 2.1-.1 2.4 1 1 1.8-.4 1.3-2.4l-.4-1.8-.8 1.8zm371.5.6c0 1.2.5 2.1 1 2.1.6 0 1-.6 1-1.4 0-.8-.4-1.8-1-2.1l-1-.6v2zm26 0c0 1.2.5 2.1 1 2.1.6 0 1-.6 1-1.4 0-.8-.4-1.8-1-2.1l-1-.6v2zm-392 3.7v1.5l1-.6c.6-.3 1-1 1-1.6 0-.5-.4-.9-1-.9-.5 0-1 .7-1 1.6zm360-.7c0 .6.5 1.3 1 1.6l1 .6v-1.5c0-.9-.4-1.6-1-1.6-.5 0-1 .4-1 .9zM1.5 268.3c-.4 4.6-.5 9.2-.2 10.3.2 1 .6-.4.7-3.1.1-2.8.5-7.4.9-10.3.4-2.8.4-5.2 0-5.2s-1 3.8-1.4 8.3zm86.2-7.6c-1.1 1-.8 4.3.3 4.3.6 0 1-1.1 1-2.5 0-2.6-.2-2.9-1.3-1.8zm424.3 1.7c0 1.4.5 2.6 1 2.6.6 0 1-.9 1-1.9 0-1.1-.4-2.3-1-2.6l-1-.6v2.5zm85.1 2.8c.4 2.9.8 7.5.9 10.3.1 2.7.5 4.1.7 3.1.7-2.6-.7-18.6-1.6-18.6-.4 0-.4 2.4 0 5.2zM94 263.1v2l1-.6c.6-.3 1-1.3 1-2.1s-.4-1.4-1-1.4c-.5 0-1 .9-1 2.1zm18.6-1.2c-.4.7-.5 1.5-.2 1.8.9.9 1.9-.4 1.4-1.8l-.4-1.3-.8 1.3zm373.4.5c0 .9.5 1.6 1 1.6.6 0 1-.4 1-.9 0-.6-.4-1.3-1-1.6l-1-.6v1.5zm19 0c0 .8.5 1.8 1 2.1l1 .6v-2c0-1.2-.4-2.1-1-2.1-.5 0-1 .6-1 1.4zm-387 3.7v2l1-.6c.6-.3 1-1.3 1-2.1s-.4-1.4-1-1.4c-.5 0-1 .9-1 2.1zm362-.7c0 .8.5 1.8 1 2.1l1 .6v-2c0-1.2-.4-2.1-1-2.1-.5 0-1 .6-1 1.4zm-393.3 2.3c-1.1 1-.8 5.3.3 5.3.6 0 1-1.4 1-3 0-3.1-.2-3.5-1.3-2.3zm24.8.6c-.4 1-.5 2.1-.1 2.4 1 1 1.8-.4 1.3-2.4l-.4-1.8-.8 1.8zm375.5.6c0 1.2.5 2.1 1 2.1.6 0 1-.6 1-1.4 0-.8-.4-1.8-1-2.1l-1-.6v2zm26 1c0 1.7.5 3.1 1 3.1.6 0 1-1.1 1-2.4 0-1.4-.4-2.8-1-3.1l-1-.6v3zm-420 .7v2.5l1-.6c.6-.3 1-1.5 1-2.6 0-1-.4-1.9-1-1.9-.5 0-1 1.2-1 2.6zm413-.7c0 1.1.5 2.3 1 2.6l1 .6v-2.5c0-1.4-.4-2.6-1-2.6-.5 0-1 .9-1 1.9zm-389 3.7v1.5l1-.6c.6-.3 1-1 1-1.6 0-.5-.4-.9-1-.9-.5 0-1 .7-1 1.6zm364-.7c0 .6.5 1.3 1 1.6l1 .6v-1.5c0-.9-.4-1.6-1-1.6-.5 0-1 .4-1 .9zm-370.3 2.8c-1.1 1-.8 4.3.3 4.3.6 0 1-1.1 1-2.5 0-2.6-.2-2.9-1.3-1.8zm377.3 1.7c0 1.4.5 2.6 1 2.6.6 0 1-.9 1-1.9 0-1.1-.4-2.3-1-2.6l-1-.6v2.5zm-402.3-.7c-.4.3-.7 2.6-.7 5v4.3h2v-5c0-2.8-.1-5-.3-5-.2 0-.7.3-1 .7zm428.3 4.2v5.1h2v-4.4c0-2.5-.4-4.8-1-5.1l-1-.6v5zm-422 .7v4.5l1-.6c.6-.3 1-2.4 1-4.6 0-2.1-.4-3.9-1-3.9h-1v4.6zm415-.7c0 2.2.5 4.3 1 4.6l1 .6V277h-1c-.5 0-1 1.8-1 3.9zM0 282c0 .5.5 1 1 1 .6 0 1-.5 1-1 0-.6-.4-1-1-1-.5 0-1 .4-1 1zm598.5 17c0 9.9.3 18 .8 18 .4 0 .7-8.1.7-18s-.3-18-.7-18c-.5 0-.8 8.1-.8 18zM116 286.6v3.5l1-.6c.6-.3 1-1.9 1-3.6 0-1.6-.4-2.9-1-2.9-.5 0-1 1.6-1 3.6zm366-.7c0 1.7.5 3.3 1 3.6l1 .6v-3.5c0-2-.4-3.6-1-3.6-.5 0-1 1.3-1 2.9zM.4 299c0 8.5.2 12 .3 7.7.2-4.2.2-11.2 0-15.5-.1-4.2-.3-.7-.3 7.8zm115.6 4.4c0 2 .5 3.6 1 3.6.6 0 1-1.3 1-2.9 0-1.7-.4-3.3-1-3.6l-1-.6v3.5zm366.7-2.7c-1.1 1-.8 6.3.3 6.3.6 0 1-1.6 1-3.5 0-3.6-.2-4-1.3-2.8zM92 308.4v4.6h2.1l-.3-4.1c-.3-5.6-1.8-6-1.8-.5zm415.7-3.7c-.2.5-.5 2.5-.6 4.5l-.3 3.8h2.2v-4.5c0-4.2-.4-5.5-1.3-3.8zM85 308.9c0 2.2.5 4.3 1 4.6l1 .6V305h-1c-.5 0-1 1.8-1 3.9zm429 .7v4.5l1-.6c.6-.3 1-2.4 1-4.6 0-2.1-.4-3.9-1-3.9h-1v4.6zm-404 1.3c0 1.1.5 2.3 1 2.6l1 .6v-2.5c0-1.4-.4-2.6-1-2.6-.5 0-1 .9-1 1.9zm378 1.2v2l1-.6c.6-.3 1-1.3 1-2.1s-.4-1.4-1-1.4c-.5 0-1 .9-1 2.1zm-371 3.8c0 1.2.5 2.1 1 2.1.6 0 1-.6 1-1.4 0-.8-.4-1.8-1-2.1l-1-.6v2zm364.5-.6c-.4 1-.5 2.1-.1 2.4 1 1 1.8-.4 1.3-2.4l-.4-1.8-.8 1.8zM0 316c0 .5.5 1 1 1 .6 0 1-.5 1-1 0-.6-.4-1-1-1-.5 0-1 .4-1 1zm86 3.4c0 1.4.5 2.8 1 3.1l1 .6v-3c0-1.7-.4-3.1-1-3.1-.5 0-1 1.1-1 2.4zm7 .5c0 1.7.5 3.1 1 3.1.6 0 1-1.1 1-2.4 0-1.4-.4-2.8-1-3.1l-1-.6v3zm413.7-2.2c-1.1 1-.8 5.3.3 5.3.6 0 1-1.4 1-3 0-3.1-.2-3.5-1.3-2.3zm6.3 2.4v3l1-.6c.6-.3 1-1.7 1-3.1 0-1.3-.4-2.4-1-2.4-.5 0-1 1.4-1 3.1zM1.1 321.6C.9 327.4 2.2 338 3 338c.4 0 .5-1 .3-2.3-.2-1.2-.8-5.8-1.2-10.2l-.8-8-.2 4.1zm596.9.9c-.1 2.7-.5 7.4-.9 10.2-.4 2.9-.4 5.3 0 5.3.9 0 2.3-16 1.6-18.6-.2-1-.6.3-.7 3.1zm-487-2.6c0 .6.5 1.3 1 1.6l1 .6v-1.5c0-.9-.4-1.6-1-1.6-.5 0-1 .4-1 .9zm376 .7v1.5l1-.6c.6-.3 1-1 1-1.6 0-.5-.4-.9-1-.9-.5 0-1 .7-1 1.6zm-6.5 1.7c-.4 1-.5 2.1-.1 2.4 1 1 1.8-.4 1.3-2.4l-.4-1.8-.8 1.8zM118 323.4c0 .9.5 1.6 1 1.6.6 0 1-.4 1-.9 0-.6-.4-1.3-1-1.6l-1-.6v1.5zm387.7 1.3c-1.1 1-.8 5.3.3 5.3.6 0 1-1.4 1-3 0-3.1-.2-3.5-1.3-2.3zM94 327.4c0 1.4.5 2.6 1 2.6.6 0 1-.9 1-1.9 0-1.1-.4-2.3-1-2.6l-1-.6v2.5zm18-1c0 .8.5 1.8 1 2.1l1 .6v-2c0-1.2-.4-2.1-1-2.1-.5 0-1 .6-1 1.4zm374 .2v1.5l1-.6c.6-.3 1-1 1-1.6 0-.5-.4-.9-1-.9-.5 0-1 .7-1 1.6zm-399 1.3c0 1.1.5 2.3 1 2.6l1 .6v-2.5c0-1.4-.4-2.6-1-2.6-.5 0-1 .9-1 1.9zm425 .7v2.5l1-.6c.6-.3 1-1.5 1-2.6 0-1-.4-1.9-1-1.9-.5 0-1 1.2-1 2.6zm-393 .8c0 .9.5 1.6 1 1.6.6 0 1-.4 1-.9 0-.6-.4-1.3-1-1.6l-1-.6v1.5zm360.6-.5c-.4.7-.5 1.5-.2 1.8.9.9 1.9-.4 1.4-1.8l-.4-1.3-.8 1.3zm-384.6 4c0 1.2.5 2.1 1 2.1.6 0 1-.6 1-1.4 0-.8-.4-1.8-1-2.1l-1-.6v2zm18-1c0 .6.5 1.3 1 1.6l1 .6v-1.5c0-.9-.4-1.6-1-1.6-.5 0-1 .4-1 .9zm372 .7v1.5l1-.6c.6-.3 1-1 1-1.6 0-.5-.4-.9-1-.9-.5 0-1 .7-1 1.6zm19.5-.3c-.4 1-.5 2.1-.1 2.4 1 1 1.8-.4 1.3-2.4l-.4-1.8-.8 1.8zm-416 3.4c.3 2.1 1.1 4.2 1.7 4.8l1.1 1-.7-3.4c-.3-1.8-.6-4-.6-4.7 0-.8-.5-1.4-1.1-1.4h-1.1l.7 3.7zm31.5-2.3c0 .9.5 1.6 1 1.6.6 0 1-.4 1-.9 0-.6-.4-1.3-1-1.6l-1-.6v1.5zm358.6-.5c-.4.7-.5 1.5-.2 1.8.9.9 1.9-.4 1.4-1.8l-.4-1.3-.8 1.3zm32.4.5c0 .7-.3 2.9-.6 4.7l-.7 3.4 1.1-1c.6-.6 1.4-2.7 1.7-4.8l.7-3.7h-1.1c-.6 0-1.1.6-1.1 1.4zm-397 2.5c0 .6.5 1.3 1 1.6l1 .6v-1.5c0-.9-.4-1.6-1-1.6-.5 0-1 .4-1 .9zm370 .7v1.5l1-.6c.6-.3 1-1 1-1.6 0-.5-.4-.9-1-.9-.5 0-1 .7-1 1.6zm-388 1.3c0 1.2.5 2.1 1 2.1.6 0 1-.6 1-1.4 0-.8-.4-1.8-1-2.1l-1-.6v2zm407.5-.6c-.4 1-.5 2.1-.1 2.4 1 1 1.8-.4 1.3-2.4l-.4-1.8-.8 1.8zM121.4 339c.3 1.4.6 2.8.6 3.2 0 .5.5.8 1.1.8h1l-.6-2.3c-.4-1.2-1.2-2.7-1.7-3.2l-1.1-1 .7 2.5zm355.6.4c-1.2 3.3-1.2 3.6-.1 3.6 1 0 2.5-5 1.7-5.8-.3-.2-1 .7-1.6 2.2zM3.2 341.5c0 1.6.4 4.3.8 6l.8 3v-3c0-1.7-.4-4.4-.8-6l-.8-3v3zm593 .5c0 1.9.2 2.7.5 1.7.2-.9.2-2.5 0-3.5-.3-.9-.5-.1-.5 1.8zM115 340.4c0 1.4 2.1 5.8 2.6 5.4.8-.8-.7-5.8-1.7-5.8-.5 0-.9.2-.9.4zm368 1.2v1.5l1-.6c.6-.3 1-1 1-1.6 0-.5-.4-.9-1-.9-.5 0-1 .7-1 1.6zm-386 .8c0 .9.5 1.6 1 1.6.6 0 1-.4 1-.9 0-.6-.4-1.3-1-1.6l-1-.6v1.5zm405.6-.5c-.4.7-.5 1.5-.2 1.8.9.9 1.9-.4 1.4-1.8l-.4-1.3-.8 1.3zm-412.6.9c0 .4 1.1 4.5 2.3 9.2 3.5 12.4 9.1 27 15.3 39.5 10.6 21.2 29.7 46.9 43.8 58.9 6.5 5.5 9.3 5.4 3.1-.1-9.2-8.3-15.5-14.5-15.5-15.3 0-.4-1.3-2-3-3.3-1.6-1.4-3-2.8-3-3.2 0-1-7.4-10.5-8.2-10.5-.4 0-.8-.7-.8-1.5s-.4-1.5-1-1.5c-.5 0-1-.7-1-1.5s-.4-1.5-1-1.5c-.5 0-1-.5-1-1 0-.6-2.7-5.6-5.9-11.3-3.2-5.6-8-15.1-10.5-21.1-4.4-10.3-11.6-32.1-11.6-35.2 0-.8-.4-1.4-1-1.4-.5 0-1 .3-1 .8zm418.5 2.9c-1.2 6.6-8.1 26.4-12.5 36.3-2.4 5.2-6.7 13.7-9.7 18.7-2.9 5.1-5.3 9.7-5.3 10.3 0 .5-.4 1-1 1-.5 0-1 .7-1 1.5s-.4 1.5-1 1.5c-.5 0-1 .7-1 1.5s-.4 1.5-.8 1.5c-.8 0-8.2 9.5-8.2 10.5 0 .4-1.3 1.8-3 3.2-1.6 1.3-3 3-3.1 3.6-.1 1.3-15 15-27.2 25.1-4 3.3-11.7 8.9-17.2 12.5-5.5 3.6-10.2 6.8-10.5 7.1-.6.6-23.5 11.4-26.2 12.3-1 .4-1.8.2-1.8-.2 0-2.9 2.5-4.8 13.4-10.3 12.8-6.4 30.6-17.4 30.6-18.9 0-.5.7-.9 1.5-.9.9 0 1.8-.7 2.1-1.5.4-.8 1.2-1.5 1.9-1.5 1.5 0 4-2.8 3.2-3.6-.3-.4-2.5.9-4.9 2.9-11.3 9.1-36.5 23.5-53.5 30.4l-5.2 2.1-2 4.1c-2.4 4.6-2.5 5.1-1.1 5.1.6 0 1-.6 1-1.3v-1.4l2.9.5 2.9.4 12.3-5.2c6.8-2.9 15-6.7 18.2-8.6 3.2-1.9 6-3.4 6.3-3.4.3 0 5.1-3.1 10.8-6.9 17.7-11.9 35.1-27.1 46.4-40.6 15-17.8 28.7-41.3 36.8-63 3.3-8.9 8.4-25.7 8.4-27.7 0-.5-.4-.8-.9-.8s-1.2 1.7-1.6 3.7zm-139.8 148c-.4.3-.7 0-.7-.7s.3-1 .7-.7c.3.4.3 1 0 1.4zM123 344.6c0 1.2 5.1 16.2 7.5 22.1.9 2.4 2.1 4.3 2.6 4.3s.9-.2.9-.4-1.1-2.8-2.4-5.7c-1.3-3-3.3-8.6-4.6-12.4-1.2-3.9-2.6-7.4-3.1-8l-.9-.9v1zm352.7.1c-.2.4-1.5 3.9-2.7 7.8-1.3 3.8-3.3 9.4-4.6 12.4-1.3 2.9-2.4 5.5-2.4 5.7 0 .2.4.4.9.4 1.5 0 10.9-25.6 9.8-26.6-.3-.3-.7-.2-1 .3z"/><path d="M98 346.3c0 2.6 7.4 24.4 11 32.4 1.8 4 3.7 7.3 4.1 7.3 1.3 0 1.1-.6-1-4.8-3.1-6.1-7.7-18.2-10.1-26.7-1.3-4.4-2.7-8.4-3.2-9l-.8-.9v1.7zm403.7-.3c-.3.8-1.8 5.5-3.2 10.3-1.5 4.8-4.6 13.4-7.1 19-2.4 5.6-4.4 10.3-4.4 10.4 0 .2.4.3.9.3 2.1 0 15.7-36.4 14.8-39.9l-.4-1.6-.6 1.5zm93.5 2c0 1.4.2 1.9.5 1.2.2-.6.2-1.8 0-2.5-.3-.6-.5-.1-.5 1.3zm-478.2-.7c0 .4 3.4 10.4 4.5 13.6.3.8.8 1.1 1.1.8.8-.7-3.8-14.7-4.8-14.7-.4 0-.8.2-.8.3zm362.1 6.8c-1.2 3.9-2 7.3-1.7 7.6.3.3.8 0 1.1-.8 1.1-3.2 4.5-13.2 4.5-13.6 0-.1-.4-.3-.8-.3s-1.8 3.2-3.1 7.1zM5.6 356.4c.3 2.7.9 5.8 1.4 7l.9 2.1-.1-2c0-1.1-.6-4.3-1.4-7l-1.3-5 .5 4.9zm587.5 1.5c-.7 3.4-1 6.5-.8 6.8.7.6 2.9-10.5 2.5-11.9-.3-.7-1 1.6-1.7 5.1zm-469.5 8.3c1.1 3.7 3.5 8 4.1 7.4.7-.7-3-9.6-4-9.6-.5 0-.5 1-.1 2.2zm350 2.4c-2.1 5-1.5 7.2.7 2.7 2.1-4 3-7.3 2-7.3-.4 0-1.6 2.1-2.7 4.6zM8.2 367.5c0 2.1 2.5 10.7 2.7 9 0-.6-.6-3.3-1.3-6-.8-2.8-1.4-4.1-1.4-3zm583 .5c0 1.4.2 1.9.5 1.2.2-.6.2-1.8 0-2.5-.3-.6-.5-.1-.5 1.3zm-1.6 5.6c-.4 1.4-.5 2.8-.3 3.1.3.2.8-.8 1.1-2.3.4-1.4.5-2.8.3-3.1-.3-.2-.8.8-1.1 2.3zm-578.5 5.9c0 1.1.4 2.7.9 3.5l1 1.5-.1-1.5c0-.8-.4-2.4-.9-3.5l-.9-2v2zm576.5 1.1c-.4 1.4-.5 2.9-.2 3.1.3.3.8-.7 1.2-2.1.3-1.5.4-2.9.1-3.2-.2-.3-.8.7-1.1 2.2zM139 383.4c0 .8.6 2.1 1.4 2.8.7.8 1.7 2.4 2 3.6.4 1.2 1.2 2.2 1.7 2.2s.9.7.9 1.5.5 1.5 1 1.5c.6 0 1 .7 1 1.5s.5 1.5 1 1.5c.6 0 1 .7 1 1.5s.7 1.5 1.5 1.5 1.5-.5 1.5-1c0-.6-.4-1-1-1-.5 0-3.3-3.8-6.1-8.5-2.9-4.7-5.4-8.5-5.6-8.5-.1 0-.3.6-.3 1.4zm320 .7c-1.3 2.4-.4 4.1 1 1.9 1-1.6 1.3-4 .5-4-.2 0-.9.9-1.5 2.1zM13.1 386c0 .8.4 2.4.9 3.5l.9 2V390c0-.8-.4-2.4-.9-3.5l-.9-2v1.5zm119.9-.2c0 .5.7 1.7 1.5 2.8 1.5 1.9 2 .8.9-2-.6-1.7-2.4-2.2-2.4-.8zm331.6.8c-1.1 2.8-.6 3.9.9 2 .8-1.1 1.5-2.3 1.5-2.8 0-1.4-1.8-.9-2.4.8zm121 1c-.4 1.4-.5 2.8-.3 3.1.3.2.8-.8 1.1-2.3.4-1.4.5-2.8.3-3.1-.3-.2-.8.8-1.1 2.3zM115 390c0 2 5 10.8 12 21.4 3.9 5.8 7.5 10.6 8.1 10.6.5 0 .9.6.9 1.4 0 1.6 2.8 4.2 3.6 3.3.3-.3-1.5-3.1-3.9-6.4-5.6-7.3-14.8-21.5-17.6-27.1-2.1-4.2-3.1-5.2-3.1-3.2zm339.5 1.6c-1 1.6-2.9 4-4.2 5.3-2.4 2.5-3 4.1-1.3 4.1.6 0 1-.7 1-1.5s.7-1.5 1.5-1.5 1.5-.7 1.5-1.5.5-1.5 1-1.5c.6 0 1-.6 1-1.4 0-.8.5-1.6 1.2-1.8.6-.2.9-1 .7-1.7l-.5-1.4-1.9 2.9zM483 393c-2.9 5.8-12 19.9-17.7 27.3-2.4 3.3-4.2 6.1-3.9 6.4.8.9 3.6-1.7 3.6-3.3 0-.8.4-1.4.9-1.4 1.2 0 14.2-19.3 17.7-26.2 1.4-2.7 2.3-5.5 2.1-6.1-.2-.7-1.4.8-2.7 3.3zm-468 0c0 .7.3 1 .7.7.3-.4.3-1 0-1.4-.4-.3-.7 0-.7.7zm122-.1c0 .6.5 1.3 1 1.6l1 .6v-1.5c0-.9-.4-1.6-1-1.6-.5 0-1 .4-1 .9zm324 .7v1.5l1-.6c.6-.3 1-1 1-1.6 0-.5-.4-.9-1-.9-.5 0-1 .7-1 1.6zm123-.6c0 .7.3 1 .7.7.3-.4.3-1 0-1.4-.4-.3-.7 0-.7.7zm-567.4 4c.3 1.4 1.1 3.2 1.6 4l.9 1.5-.7-2.5c-.3-1.4-1.1-3.2-1.6-4l-.9-1.5.7 2.5zm565.5 1.1c-.6 1.8-.9 3.4-.7 3.6.2.2.9-1 1.5-2.8.6-1.8.9-3.4.7-3.6-.2-.2-.9 1-1.5 2.8zm-442.1-.2c0 .6.5 1.3 1 1.6l1 .6v-1.5c0-.9-.4-1.6-1-1.6-.5 0-1 .4-1 .9zm318 .7v1.5l1-.6c.6-.3 1-1 1-1.6 0-.5-.4-.9-1-.9-.5 0-1 .7-1 1.6zm-315 3c0 .3 1.4 2.6 3.2 5.2l3.2 4.6.4-1.4c.3-.7-.3-1.9-1.2-2.5-.9-.7-1.6-1.7-1.6-2.4 0-.6-.4-1.1-1-1.1-.5 0-1-.7-1-1.5s-.4-1.5-1-1.5c-.5 0-1 .3-1 .6zm312 .9c0 .8-.4 1.5-1 1.5-.5 0-1 .6-1 1.4 0 .8-.9 1.8-2 2.1-1.1.3-2 1.3-2 2v1.4l1.4-.5c1.3-.5 6.6-7.6 6.6-8.9 0-.3-.4-.5-1-.5-.5 0-1 .7-1 1.5zm-302 .8c0 1 .7 2 1.5 2.3.8.4 1.5 1.2 1.5 2s.9 1.9 2 2.6c1.1.7 2 1.8 2 2.4 0 1.4 4.8 5.9 5.6 5.1.5-.4-6.5-9.4-11.7-15.2l-.9-.9v1.7zm290.7 2c-2.9 3.9-3.2 4.7-1.7 4.7.6 0 1.4-.8 1.7-1.8.4-.9 1.3-2.2 2.1-2.8.8-.6 1.3-1.7 1-2.4l-.4-1.2-2.7 3.5zM19 403.7c0 .6.7 2.8 1.6 4.9.9 2.2 2 5 2.5 6.3.5 1.3 1.2 2.2 1.4 1.9.3-.3-.7-3.4-2.1-6.9-2.7-6.7-3.4-7.9-3.4-6.2zm559.2 4.5c-1.1 2.9-2.3 6.2-2.8 7.3l-.7 2 1-1c1.4-1.4 5.7-12.5 5.1-13.1-.3-.2-1.4 1.9-2.6 4.8zm-142.1 6.2c-1.9 2-3.1 3.9-2.7 4.3.9.9 6.9-5.2 6.5-6.6l-.4-1.2-3.4 3.5zM152 412.8c0 .5.7 1.6 1.6 2.3l1.6 1.3-.3-1.8c-.4-2-2.9-3.5-2.9-1.8zm293.7-.1c-.4.3-.7 1.3-.7 2.1v1.4l1.5-1.2c.8-.7 1.5-1.6 1.5-2.1 0-1.1-1.4-1.2-2.3-.2zM25 418.3c0 1.3 5.2 11.9 5.6 11.4.3-.2-.9-3.1-2.5-6.3-1.7-3.2-3-5.5-3.1-5.1zm132 .5c0 .5.9 1.7 2 2.7l2 1.8v-1.4c0-1.6-1.9-3.9-3.2-3.9-.4 0-.8.4-.8.8zm283.2.4c-.7.7-1.2 1.9-1.2 2.7v1.4l2-1.8c2.1-1.9 2.6-3.5 1.2-3.5-.4 0-1.3.5-2 1.2zm131.5 4.5c-1.5 3.1-2.5 5.8-2.3 6 .2.2 1.6-2.1 3.1-5.2 1.4-3.1 2.5-5.8 2.3-6-.2-.2-1.6 2.1-3.1 5.2zM175 427.6c0 .8 6.3 7.4 7.1 7.4.4 0 2.2 1.4 4 3.1 5.6 5.2 21.8 15.4 35.2 22l12.7 6.4.6 1.8c.3 1 .4 2 .2 2.2-.2.2-3.5-1-7.3-2.6-7.1-3-11.4-3.5-6-.7 4.4 2.3 20.4 7.8 22.5 7.8h1.9l-.5-1.5c-.4-.8-1-1.2-1.5-.9l-.9.5.7-1.7.6-1.7-1.1.7-1.2.7.5-1.4.6-1.3-12.7-5.9c-6.9-3.3-17.3-8.7-22.9-12.1-10.7-6.4-24.3-16.3-28.5-20.8-2.4-2.4-4-3.3-4-2zm246 2c-3.3 3.6-15.8 12.9-25 18.9-6.8 4.3-32.5 17.3-37.7 18.9-2.1.7-4.3 3.4-5.6 6.8l-.6 1.7 3.2-.6c4.5-.8 15-4.4 16.2-5.4l.9-.9h-1.1c-.6 0-3 .7-5.3 1.5s-4.4 1.5-4.6 1.5c-.2 0 .1-1 .7-2.3l1-2.3 13.5-6.3c7.4-3.5 13.4-6.8 13.4-7.2 0-.5.6-.9 1.3-.9 1.8 0 18.4-11 22.6-14.9 1.8-1.7 3.6-3.1 4-3.1.8 0 7.1-6.6 7.1-7.4 0-1.3-1.6-.4-4 2zm-280-.5c0 1.7 5.8 7.4 6.7 6.5.3-.3-1.1-2.2-3.1-4.3l-3.6-3.8v1.6zm315.1 2.4c-1.8 2-3 3.9-2.8 4.2.9.8 7-5.3 6.6-6.6l-.4-1.2-3.4 3.6zm109.3 5.2c-3.1 6.2-15.4 26.3-20.3 33.3-14.1 20.2-37.9 45.6-57.4 61.2-12.4 9.9-28.2 20.6-37.7 25.6-3.6 1.9-8.6 4.6-11.3 6-2.6 1.4-4.6 2.7-4.3 2.9.2.2 3-1 6.2-2.8 3.3-1.8 8.2-4.4 10.9-5.9 7.5-3.9 21.7-13.3 33-21.9 12.6-9.6 41.9-38.6 51.5-51.1 9.3-12.2 17.2-23.9 24.4-36.5 7.8-13.7 7.8-13.6 7.3-14.1-.2-.2-1.2 1.3-2.3 3.3zm-392.1-1c.9.9 1.9 1.4 2.3 1.1 1-1-.6-2.8-2.4-2.8h-1.6l1.7 1.7zm251.2-.6c-1.2 1.9.5 2.3 2.2.6l1.7-1.7h-1.6c-.9 0-2 .5-2.3 1.1zm-390.8 1.4c1 3 10.9 19.9 17.3 29.5 10.9 16.1 20.4 27.6 36.9 44.1 16.6 16.6 27.8 25.9 44.5 37.2 8.6 5.8 27.2 16.1 25.1 13.9-.5-.6-3.5-2.3-6.5-3.8-8.2-4.1-26.3-16.4-38.6-26.2-19.6-15.6-43.4-41-57.5-61.2-5.6-7.9-18.9-29.7-18.9-30.8 0-.5-.7-1.7-1.5-2.8l-1.5-1.9.7 2zm117.3 2.7c0 1.9 3.5 5.1 5 4.6l1.1-.3-3.1-3-3-2.9v1.6zm295.5 1.8l-2.9 3h1.6c1.9 0 5.1-3.5 4.6-5l-.3-1.1-3 3.1zm-266.2.7c.9.9 1.9 1.4 2.3 1.1 1-1-.6-2.8-2.4-2.8h-1.6l1.7 1.7zm237.2-.6c-1.2 1.9.5 2.3 2.2.6l1.7-1.7h-1.6c-.9 0-2 .5-2.3 1.1zM184 444.4c0 1.1 23.5 16.6 25.2 16.6.5 0 .8-.4.8-.9s-1.6-1.5-3.5-2.2c-1.9-.7-3.5-1.7-3.5-2.1 0-.4-.7-.8-1.5-.8s-1.5-.4-1.5-1c0-.5-1.1-1.2-2.4-1.6-1.4-.3-2.7-1.2-3-2-.3-.8-1.2-1.4-2.1-1.4-.8 0-1.5-.5-1.5-1 0-.6-.6-1-1.4-1-.8 0-1.6-.7-2-1.5-.3-.8-1.2-1.5-2.1-1.5-.8 0-1.5.2-1.5.4zm228.4 1.1c-.4.8-1.2 1.5-2 1.5s-1.4.4-1.4 1c0 .5-.7 1-1.5 1-.9 0-1.8.6-2.1 1.4-.3.8-1.6 1.7-3 2-1.3.4-2.4 1.1-2.4 1.6 0 .6-.7 1-1.5 1s-1.5.4-1.5.8-1.6 1.4-3.5 2.1c-1.9.7-3.5 1.7-3.5 2.2 0 .5.3.9.8.9 1.7 0 25.2-15.5 25.2-16.6 0-.2-.7-.4-1.5-.4-.9 0-1.8.7-2.1 1.5zM158 446c0 .5.5 1 1 1 .6 0 1-.5 1-1 0-.6-.4-1-1-1-.5 0-1 .4-1 1zm283 0c0 .5.5 1 1 1 .6 0 1-.5 1-1 0-.6-.4-1-1-1-.5 0-1 .4-1 1zm-280 2.8c0 1.3 4.5 5.2 6 5.2h1.4l-2.9-3c-2.8-3-4.5-3.8-4.5-2.2zm274.5 2.2l-2.9 3h1.5c1.5 0 5.9-4 5.9-5.3 0-1.5-1.7-.6-4.5 2.3zm-266.3 5.2c.2.6 1.3 1.6 2.4 2.2 1 .6 2.3 1.7 2.7 2.3.4.7 1.5 1.3 2.2 1.3.8 0 1.5.4 1.5.9 0 1.1 16.1 11.5 26.7 17.2l8.2 4.4 1 2.2 1.1 2.3h-1.3c-1.2 0-18.8-8.1-19.7-9-.3-.3-5-3.5-10.5-7.1-5.5-3.6-12.8-8.9-16.3-11.8-3.4-2.9-6.8-5.1-7.4-4.9-2.3.8 19.3 17 33.2 25 8.8 5 22.6 11.6 29.6 14.1l7.1 2.6 1.2-1.2 1.1-1.1v1.7c0 .9.5 1.7 1 1.7 1.3 0 1.3-.3-.5-4.8l-1.6-3.8-10.7-4.9c-5.9-2.7-14.8-7.2-19.8-10.1-9.9-5.5-26.5-16.6-28.4-19-1.5-1.7-3.3-1.9-2.8-.2z"/><path d="M375.3 466.7c-1.4.5-1.8 2.3-.5 2.3.5 0 1.7-.7 2.8-1.5l1.9-1.4H378c-.8 0-2.1.3-2.7.6zm-170.5 79c.7.3 1.6.2 1.9-.1.4-.3-.2-.6-1.3-.5l-1.9.1 1.3.5zM387 548c0 .5.5 1 1 1 .6 0 1-.5 1-1 0-.6-.4-1-1-1-.5 0-1 .4-1 1zm-226.6 15.5c1.1.8 2.5 1.5 3 1.5.6 0 .2-.7-.8-1.5-1.1-.8-2.5-1.5-3-1.5-.6 0-.2.7.8 1.5zm5.1 2.4c.6.5 3.7 2.2 7 3.6 3.3 1.5 5.6 2.2 5 1.7-1.4-1.3-13.2-6.6-12-5.3zm255 5.6c-4.9 2.4-8.7 4.4-8.3 4.4 1.1.1 14.9-6 17.3-7.6 3.7-2.4 0-1.1-9 3.2zM180 573c.8.5 2 1 2.5 1 .6 0 .3-.5-.5-1s-1.9-1-2.5-1c-.5 0-.3.5.5 1zm4 1.4c0 .2.7.7 1.6 1l1.5.6-.6-1c-.6-1-2.5-1.4-2.5-.6zm225.3 2.3c.4.3 1 .3 1.4 0 .3-.4 0-.7-.7-.7s-1 .3-.7.7zm-5 2c.4.3 1 .3 1.4 0 .3-.4 0-.7-.7-.7s-1 .3-.7.7z"/></g><g fill="#fbf8eb"><path d="M296.5 81.7c-2 .4-4.8 4.7-3.7 5.8.3.3 2.4.5 4.8.5h4.2l-1.1-3.5c-.6-1.9-1.3-3.4-1.6-3.4-.3.1-1.5.4-2.6.6zm-12.2 25l-3.3.4v5.9h3.5c1.9 0 3.5-.5 3.5-1 0-.6-.4-1-1-1-.5 0-1-.7-1-1.5V108h2.5c1.4 0 2.5-.5 2.5-1 0-1-.7-1-6.7-.3zm21.7.2c0 .6.9 1.1 2 1.1h2v3h-2.5c-1.4 0-2.5.5-2.5 1v1.1l6.3-.3 6.2-.3-.3-2.5c-.2-1.4-.5-2.6-.6-2.7-.1-.1-2.5-.5-5.4-.9l-5.2-.7v1.2zm95.2 3.4l-2.2 2.4 11.7 7.8c28.6 19 48.5 38.4 64.6 63 11.6 17.8 22.5 43.5 27.5 65 4.9 20.9 6.5 47.9 4.1 69.3-1.4 13.2-5.2 30.2-9.5 43.4-2 6-6.7 17-10.4 24.6-7.3 14.9-15.3 27.6-24.7 39.2-6.4 7.8-22.7 23.6-33.5 32.3-10 8-23.3 16.4-36.9 23.3l-12.7 6.3-1.1 3.2c-.6 1.8-1.1 3.6-1.1 4 0 .5 2.8-.2 6.3-1.5 16.2-6.1 38.2-19.4 54.7-33.1 13.7-11.4 28.5-26.7 36.3-37.6 23.7-32.8 37.2-69.2 40.8-109.9l1.1-13.5-.6-12c-1.6-26.9-6.1-48-15.1-70.5-7.8-19.3-15.1-32.2-28.1-49.5-12.7-17-24.8-28.7-44.9-43.5-8.1-6-22.3-15-23.6-15-.3 0-1.5 1.1-2.7 2.3zm-212.8 2.6c-12.5 7.2-32.2 22.8-44.2 35.1-12.7 12.9-27.6 34-36.2 51-9.4 18.6-17.4 44.3-20.4 65-.8 5.8-1.8 15.9-2.2 22.5l-.6 12L86 312c2.2 25 7.5 46.5 16.8 68.2 10 23.1 24.3 44.7 40.7 61.3 12.9 13.1 26.1 24 40.3 33.3 11.3 7.3 25.1 14.5 30.5 15.8l2.8.6-1.6-3.8c-.8-2.1-1.7-3.9-1.8-3.9-.1-.1-4.9-2.8-10.7-5.9-18.7-10.4-29.5-18.4-47.6-35.2-17.7-16.5-29.8-33-41.4-56.6-3.7-7.6-8.4-18.6-10.4-24.6-4.3-13.2-8.1-30.2-9.5-43.4-2.4-21.4-.8-48.4 4.1-69.3 5-21.5 15.9-47.2 27.5-65 3.3-5 9.2-13.1 13.1-18 11-13.7 31.5-31.8 52.2-46 3-2 5.4-4.2 5.2-4.8-.2-.5-.9-1.8-1.6-2.8l-1.2-1.8-5 2.8zm31.3 11.2l-1.9 1.1.6 2.2.5 2.2-4.4 2.4c-2.5 1.4-4.5 2.8-4.5 3.2 0 .5-.7.8-1.5.8s-1.5.5-1.5 1.1c0 1.3-.3 1.4 9.3-3.9 4.2-2.4 7.7-4.9 7.7-5.7 0-1.9-1.1-4.5-1.9-4.5-.3 0-1.4.5-2.4 1.1zm157.1 1.4c-.6 1.4-.9 2.7-.7 2.9.8.7 19 11.6 19.4 11.6.3 0 .5-.5.5-1 0-.6-.7-1-1.5-1s-1.5-.4-1.5-.9-1-1.3-2.2-1.7c-1.2-.3-2.8-1.3-3.6-2-.7-.8-2-1.4-2.8-1.4-1.6 0-1.9-2.6-.4-3.5.5-.3 2.3.1 3.9 1 1.7.8 3.6 1.5 4.3 1.5h1.2l-.9-.9c-.6-.6-4.1-2.3-7.8-4l-6.8-3-1.1 2.4z"/><path d="M211.7 127.6c-1.6.9-2.6 1.8-2.3 2.1.7.8 6.6-1.7 6.6-2.8 0-1.2-1-1.1-4.3.7zm-10.3 5.9c-1 .8-1.4 1.5-.7 1.5 1.9 0 4.3-1.1 4.3-2.1 0-1.3-1.4-1.1-3.6.6zm195.6.5c0 .5.7 1 1.6 1h1.5l-.6-1c-.3-.6-1-1-1.6-1-.5 0-.9.4-.9 1zm5 3c0 .5.7 1 1.5 1s1.5.4 1.5 1c0 .5.8 1 1.8 1h1.7l-2.5-2c-2.8-2.2-4-2.5-4-1zm-209.5 2l-.6 1h1.5c.9 0 1.6-.5 1.6-1 0-.6-.4-1-.9-1-.6 0-1.3.4-1.6 1zm9.5 1c0 .5-.7 1-1.5 1s-1.5.4-1.5 1c0 .5-.7 1-1.5 1s-1.5.4-1.5 1c0 .5.2 1 .5 1 .7 0 8.5-5.2 8.5-5.6 0-.2-.7-.4-1.5-.4s-1.5.4-1.5 1zm207 2c0 .5.7 1 1.5 1s1.5.4 1.5 1c0 .5.8 1 1.8 1h1.7l-2.5-2c-2.8-2.2-4-2.5-4-1zm-224.1 2.6l-1.3 1.6 1.8-.3c1.1-.2 2.1-1 2.4-1.7.5-1.7-1.3-1.5-2.9.4zm7.1 2.4c0 .5.4 1 .9 1 .6 0 1.3-.5 1.6-1l.6-1h-1.5c-.9 0-1.6.4-1.6 1zm213.5 0c.3.5 1 1 1.6 1 .5 0 .9-.5.9-1 0-.6-.7-1-1.6-1h-1.5l.6 1zm-225 1l-.6 1h1.5c.9 0 1.6-.5 1.6-1 0-.6-.4-1-.9-1-.6 0-1.3.4-1.6 1zm236.5 0c0 .5.7 1 1.6 1h1.5l-.6-1c-.3-.6-1-1-1.6-1-.5 0-.9.4-.9 1zm-229 2c0 .5.4 1 .9 1 .6 0 1.3-.5 1.6-1l.6-1h-1.5c-.9 0-1.6.4-1.6 1zm221.5 0c.3.5 1 1 1.6 1 .5 0 .9-.5.9-1 0-.6-.7-1-1.6-1h-1.5l.6 1zm-235.6 3.6l-1.3 1.6 1.8-.3c1.1-.2 2.1-1 2.4-1.7.5-1.7-1.3-1.5-2.9.4zm10.1-.6c0 .5.4 1 .9 1 .6 0 1.3-.5 1.6-1l.6-1h-1.5c-.9 0-1.6.4-1.6 1zm229.5 0c.3.5 1 1 1.6 1 .5 0 .9-.5.9-1 0-.6-.7-1-1.6-1h-1.5l.6 1zm9.7.2c.3.7 1.3 1.5 2.4 1.7l1.8.3-1.3-1.6c-1.6-1.9-3.4-2.1-2.9-.4zm-246.7 5.9c-1.2 1.9.5 2.3 2.2.6l1.7-1.7h-1.6c-.9 0-2 .5-2.3 1.1zm244.8.6c.9.9 1.9 1.4 2.3 1.1 1-1-.6-2.8-2.4-2.8h-1.6l1.7 1.7zm-262.7 9.2c-.4.7-.5 1.5-.2 1.8.9.9 1.9-.4 1.4-1.8l-.4-1.3-.8 1.3zm281.4.5c0 .9.5 1.6 1 1.6.6 0 1-.4 1-.9 0-.6-.4-1.3-1-1.6l-1-.6v1.5zm-276.3 2.3c-.4.3-.7 1.3-.7 2.1v1.4l1.5-1.2c.8-.7 1.5-1.6 1.5-2.1 0-1.1-1.4-1.2-2.3-.2zm270.3.1c0 .5.7 1.6 1.6 2.3l1.6 1.3-.3-1.8c-.4-2-2.9-3.5-2.9-1.8zm-281.4 4.1c-.4.7-.5 1.5-.2 1.8.9.9 1.9-.4 1.4-1.8l-.4-1.3-.8 1.3zm293.4.5c0 .9.5 1.6 1 1.6.6 0 1-.4 1-.9 0-.6-.4-1.3-1-1.6l-1-.6v1.5zm-289 4.2v1.5l1-.6c.6-.3 1-1 1-1.6 0-.5-.4-.9-1-.9-.5 0-1 .7-1 1.6zm284-.7c0 .6.5 1.3 1 1.6l1 .6v-1.5c0-.9-.4-1.6-1-1.6-.5 0-1 .4-1 .9zm-295.4 4c-.4.7-.5 1.5-.2 1.8.9.9 1.9-.4 1.4-1.8l-.4-1.3-.8 1.3zm8.4.7v1.5l1-.6c.6-.3 1-1 1-1.6 0-.5-.4-.9-1-.9-.5 0-1 .7-1 1.6zm290-.7c0 .6.5 1.3 1 1.6l1 .6v-1.5c0-.9-.4-1.6-1-1.6-.5 0-1 .4-1 .9zm9 .5c0 .9.5 1.6 1 1.6.6 0 1-.4 1-.9 0-.6-.4-1.3-1-1.6l-1-.6v1.5zm-302 4.2v1.5l1-.6c.6-.3 1-1 1-1.6 0-.5-.4-.9-1-.9-.5 0-1 .7-1 1.6zm296-.7c0 .6.5 1.3 1 1.6l1 .6v-1.5c0-.9-.4-1.6-1-1.6-.5 0-1 .4-1 .9zm-309.4 8c-.4.7-.5 1.5-.2 1.8.9.9 1.9-.4 1.4-1.8l-.4-1.3-.8 1.3zm323.4.5c0 .9.5 1.6 1 1.6.6 0 1-.4 1-.9 0-.6-.4-1.3-1-1.6l-1-.6v1.5zm-319 4.2v1.5l1-.6c.6-.3 1-1 1-1.6 0-.5-.4-.9-1-.9-.5 0-1 .7-1 1.6zm314-.7c0 .6.5 1.3 1 1.6l1 .6v-1.5c0-.9-.4-1.6-1-1.6-.5 0-1 .4-1 .9zm-321.4 1c-.4.7-.5 1.5-.2 1.8.9.9 1.9-.4 1.4-1.8l-.4-1.3-.8 1.3zm329.4.5c0 .9.5 1.6 1 1.6.6 0 1-.4 1-.9 0-.6-.4-1.3-1-1.6l-1-.6v1.5zm-325 4.2v1.5l1-.6c.6-.3 1-1 1-1.6 0-.5-.4-.9-1-.9-.5 0-1 .7-1 1.6zm320-.8c0 .5.7 1.7 1.5 2.8 1.5 1.9 2 .8.9-2-.6-1.7-2.4-2.2-2.4-.8zm-333.4 14.1c-.4.7-.5 1.5-.2 1.8.9.9 1.9-.4 1.4-1.8l-.4-1.3-.8 1.3zm347.4.5c0 .9.5 1.6 1 1.6.6 0 1-.4 1-.9 0-.6-.4-1.3-1-1.6l-1-.6v1.5zm-342 2.2v1.5l1-.6c.6-.3 1-1 1-1.6 0-.5-.4-.9-1-.9-.5 0-1 .7-1 1.6zm336-.7c0 .6.5 1.3 1 1.6l1 .6v-1.5c0-.9-.4-1.6-1-1.6-.5 0-1 .4-1 .9zm-343.4 3c-.4.7-.5 1.5-.2 1.8.9.9 1.9-.4 1.4-1.8l-.4-1.3-.8 1.3zm351.4.5c0 .9.5 1.6 1 1.6.6 0 1-.4 1-.9 0-.6-.4-1.3-1-1.6l-1-.6v1.5zm-347 4.2v1.5l1-.6c.6-.3 1-1 1-1.6 0-.5-.4-.9-1-.9-.5 0-1 .7-1 1.6zm342-.7c0 .6.5 1.3 1 1.6l1 .6v-1.5c0-.9-.4-1.6-1-1.6-.5 0-1 .4-1 .9zm-348.4 1c-.4.7-.5 1.5-.2 1.8.9.9 1.9-.4 1.4-1.8l-.4-1.3-.8 1.3zm355.4-.4c0 2.2 4.5 14.5 5.3 14.5.5 0 .7-.6.5-1.3-.3-.6-1.3-3.7-2.3-6.7-.9-3-2.1-5.9-2.6-6.5l-.9-.9v.9zm-357.8 7.6c-.5 1.3-1.2 3.4-1.6 4.6l-.7 2.3h.9c1 0 3.6-7.9 2.8-8.7-.3-.3-.9.5-1.4 1.8zm3.4 8.5c-.9 3.6.1 4.3 1.4 1 1.2-3.3 1.2-3.6.1-3.6-.5 0-1.2 1.2-1.5 2.6zm352.4-2.2c0 1.4 2.1 5.8 2.6 5.4.8-.8-.7-5.8-1.7-5.8-.5 0-.9.2-.9.4zm-358.4 2.5c-.4.7-.5 1.5-.2 1.8.9.9 1.9-.4 1.4-1.8l-.4-1.3-.8 1.3zm365.4.5c0 .9.5 1.6 1 1.6.6 0 1-.4 1-.9 0-.6-.4-1.3-1-1.6l-1-.6v1.5zm-361 5.2v1.5l1-.6c.6-.3 1-1 1-1.6 0-.5-.4-.9-1-.9-.5 0-1 .7-1 1.6zm356-.7c0 .6.5 1.3 1 1.6l1 .6v-1.5c0-.9-.4-1.6-1-1.6-.5 0-1 .4-1 .9zm-362.4 3c-.4.7-.5 1.5-.2 1.8.9.9 1.9-.4 1.4-1.8l-.4-1.3-.8 1.3zm369.4.5c0 .9.5 1.6 1 1.6.6 0 1-.4 1-.9 0-.6-.4-1.3-1-1.6l-1-.6v1.5zm-364 1.2v1.5l1-.6c.6-.3 1-1 1-1.6 0-.5-.4-.9-1-.9-.5 0-1 .7-1 1.6zm358-.7c0 .6.5 1.3 1 1.6l1 .6v-1.5c0-.9-.4-1.6-1-1.6-.5 0-1 .4-1 .9zm-359 5.7v1.5l1-.6c.6-.3 1-1 1-1.6 0-.5-.4-.9-1-.9-.5 0-1 .7-1 1.6zm360-.7c0 .6.5 1.3 1 1.6l1 .6v-1.5c0-.9-.4-1.6-1-1.6-.5 0-1 .4-1 .9zm-366.4 4c-.4.7-.5 1.5-.2 1.8.9.9 1.9-.4 1.4-1.8l-.4-1.3-.8 1.3zm373.4.5c0 .9.5 1.6 1 1.6.6 0 1-.4 1-.9 0-.6-.4-1.3-1-1.6l-1-.6v1.5zm-374.4 6.5c-.4.7-.5 1.5-.2 1.8.9.9 1.9-.4 1.4-1.8l-.4-1.3-.8 1.3zm375.4.5c0 .9.5 1.6 1 1.6.6 0 1-.4 1-.9 0-.6-.4-1.3-1-1.6l-1-.6v1.5zm-370 1.7v2l1-.6c.6-.3 1-1.3 1-2.1s-.4-1.4-1-1.4c-.5 0-1 .9-1 2.1zm364-.7c0 .8.5 1.8 1 2.1l1 .6v-2c0-1.2-.4-2.1-1-2.1-.5 0-1 .6-1 1.4zm-370.5 7.9c-.4 1-.5 2.1-.1 2.4 1 1 1.8-.4 1.3-2.4l-.4-1.8-.8 1.8zm377.5.6c0 1.2.5 2.1 1 2.1.6 0 1-.6 1-1.4 0-.8-.4-1.8-1-2.1l-1-.6v2zm-372 2.7v2.5l1-.6c.6-.3 1-1.5 1-2.6 0-1-.4-1.9-1-1.9-.5 0-1 1.2-1 2.6zm366-.2c0 .8.5 1.8 1 2.1l1 .6v-2c0-1.2-.4-2.1-1-2.1-.5 0-1 .6-1 1.4zm-366 25c0 1.4.5 2.6 1 2.6.6 0 1-.9 1-1.9 0-1.1-.4-2.3-1-2.6l-1-.6v2.5zm366.5-1.1c-.4 1-.5 2.1-.1 2.4 1 1 1.8-.4 1.3-2.4l-.4-1.8-.8 1.8zM110 308.4c0 .8.5 1.8 1 2.1l1 .6v-2c0-1.2-.4-2.1-1-2.1-.5 0-1 .6-1 1.4zm378 1.2v2.5l1-.6c.6-.3 1-1.5 1-2.6 0-1-.4-1.9-1-1.9-.5 0-1 1.2-1 2.6zm-371 7.8c0 .9.5 1.6 1 1.6.6 0 1-.4 1-.9 0-.6-.4-1.3-1-1.6l-1-.6v1.5zm364.6-.5c-.4.7-.5 1.5-.2 1.8.9.9 1.9-.4 1.4-1.8l-.4-1.3-.8 1.3zm-370.6 2c0 .6.5 1.3 1 1.6l1 .6v-1.5c0-.9-.4-1.6-1-1.6-.5 0-1 .4-1 .9zm376 .7v1.5l1-.6c.6-.3 1-1 1-1.6 0-.5-.4-.9-1-.9-.5 0-1 .7-1 1.6zm-369 4.8c0 .9.5 1.6 1 1.6.6 0 1-.4 1-.9 0-.6-.4-1.3-1-1.6l-1-.6v1.5zm362.6-.5c-.4.7-.5 1.5-.2 1.8.9.9 1.9-.4 1.4-1.8l-.4-1.3-.8 1.3zm-368.6 1c0 .6.5 1.3 1 1.6l1 .6v-1.5c0-.9-.4-1.6-1-1.6-.5 0-1 .4-1 .9zm374 .7v1.5l1-.6c.6-.3 1-1 1-1.6 0-.5-.4-.9-1-.9-.5 0-1 .7-1 1.6zm-373 5.3c0 .6.5 1.3 1 1.6l1 .6v-1.5c0-.9-.4-1.6-1-1.6-.5 0-1 .4-1 .9zm372 .7v1.5l1-.6c.6-.3 1-1 1-1.6 0-.5-.4-.9-1-.9-.5 0-1 .7-1 1.6zm-365 2.8c0 .9.5 1.6 1 1.6.6 0 1-.4 1-.9 0-.6-.4-1.3-1-1.6l-1-.6v1.5zm358.6-.5c-.4.7-.5 1.5-.2 1.8.9.9 1.9-.4 1.4-1.8l-.4-1.3-.8 1.3zm-363.6 6c0 .6.5 1.3 1 1.6l1 .6v-1.5c0-.9-.4-1.6-1-1.6-.5 0-1 .4-1 .9zm368 .7v1.5l1-.6c.6-.3 1-1 1-1.6 0-.5-.4-.9-1-.9-.5 0-1 .7-1 1.6zm-361 1.8c0 .9.5 1.6 1 1.6.6 0 1-.4 1-.9 0-.6-.4-1.3-1-1.6l-1-.6v1.5zm354.6-.5c-.4.7-.5 1.5-.2 1.8.9.9 1.9-.4 1.4-1.8l-.4-1.3-.8 1.3zm5.4 2.7v1.5l1-.6c.6-.3 1-1 1-1.6 0-.5-.4-.9-1-.9-.5 0-1 .7-1 1.6zm-359 .9c0 2 3.4 11.5 4.2 11.5 1 0 1.1.2-.8-5.6-1.6-4.6-3.4-7.9-3.4-5.9zm352.5.6c-1.4 4-3.5 10.2-3.5 10.5 0 .2.4.4.8.4 1 0 4.6-11 3.8-11.7-.3-.3-.8 0-1.1.8zM122 361.9c0 .6.5 1.3 1 1.6l1 .6v-1.5c0-.9-.4-1.6-1-1.6-.5 0-1 .4-1 .9zm354 .7v1.5l1-.6c.6-.3 1-1 1-1.6 0-.5-.4-.9-1-.9-.5 0-1 .7-1 1.6zm-347 .8c0 .9.5 1.6 1 1.6.6 0 1-.4 1-.9 0-.6-.4-1.3-1-1.6l-1-.6v1.5zm340.6-.5c-.4.7-.5 1.5-.2 1.8.9.9 1.9-.4 1.4-1.8l-.4-1.3-.8 1.3zm-345.6 4c0 .6.5 1.3 1 1.6l1 .6v-1.5c0-.9-.4-1.6-1-1.6-.5 0-1 .4-1 .9zm350 .7v1.5l1-.6c.6-.3 1-1 1-1.6 0-.5-.4-.9-1-.9-.5 0-1 .7-1 1.6zM133 372c0 1.6 4.3 10 5.2 10 1.2 0 1-.6-1.7-6-2.5-4.8-3.5-6-3.5-4zm331.1 2.9c-2.3 4.5-2.5 5.1-1.3 5.1s4.7-7.8 3.9-8.6c-.3-.3-1.5 1.2-2.6 3.5zM127 373.5c0 .3 1.4 3.3 3.1 6.6 1.7 3.4 3.3 5.8 3.6 5.5.8-.8-4.8-12.6-5.9-12.6-.4 0-.8.2-.8.5zm341.5 5.5c-1.6 3.3-2.6 6.3-2.2 6.6.3.3 1.9-2.1 3.6-5.5 1.7-3.3 3.1-6.3 3.1-6.6 0-.3-.4-.5-.8-.5-.5 0-2.1 2.7-3.7 6zM141 387.4c0 .9.5 1.6 1 1.6.6 0 1-.4 1-.9 0-.6-.4-1.3-1-1.6l-1-.6v1.5zm316.6-.5c-.4.7-.5 1.5-.2 1.8.9.9 1.9-.4 1.4-1.8l-.4-1.3-.8 1.3zm-321.6 4c0 .6.5 1.3 1 1.6l1 .6v-1.5c0-.9-.4-1.6-1-1.6-.5 0-1 .4-1 .9zm326 .7v1.5l1-.6c.6-.3 1-1 1-1.6 0-.5-.4-.9-1-.9-.5 0-1 .7-1 1.6zm-316 3.8c0 .9.5 1.6 1 1.6.6 0 1-.4 1-.9 0-.6-.4-1.3-1-1.6l-1-.6v1.5zm306.6-.5c-.4.7-.5 1.5-.2 1.8.9.9 1.9-.4 1.4-1.8l-.4-1.3-.8 1.3zm-313.6.8c0 .5.9 1.9 2 3.3l2 2.5v-1.8c0-.9-.4-1.7-1-1.7-.5 0-1-.7-1-1.5s-.4-1.5-1-1.5c-.5 0-1 .3-1 .7zm320 .8c0 .8-.4 1.5-1 1.5-.5 0-1 .8-1 1.7v1.8l2-2.5c2.2-2.8 2.5-4 1-4-.5 0-1 .7-1 1.5zm-307 5.9c0 .9.5 1.6 1 1.6.6 0 1-.4 1-.9 0-.6-.4-1.3-1-1.6l-1-.6v1.5zm294.6-.5c-.4.7-.5 1.5-.2 1.8.9.9 1.9-.4 1.4-1.8l-.4-1.3-.8 1.3zm-300.6 4c0 .6.5 1.3 1 1.6l1 .6v-1.5c0-.9-.4-1.6-1-1.6-.5 0-1 .4-1 .9zm9 .5c0 .9.5 1.6 1 1.6.6 0 1-.4 1-.9 0-.6-.4-1.3-1-1.6l-1-.6v1.5zm288.6-.5c-.4.7-.5 1.5-.2 1.8.9.9 1.9-.4 1.4-1.8l-.4-1.3-.8 1.3zm8.4.7v1.5l1-.6c.6-.3 1-1 1-1.6 0-.5-.4-.9-1-.9-.5 0-1 .7-1 1.6zm-303 3.3c0 .6.5 1.3 1 1.6l1 .6v-1.5c0-.9-.4-1.6-1-1.6-.5 0-1 .4-1 .9zm299 .7v1.5l1-.6c.6-.3 1-1 1-1.6 0-.5-.4-.9-1-.9-.5 0-1 .7-1 1.6zm-289 .8c0 .9.5 1.6 1 1.6.6 0 1-.4 1-.9 0-.6-.4-1.3-1-1.6l-1-.6v1.5zm280.6-.5c-.4.7-.5 1.5-.2 1.8.9.9 1.9-.4 1.4-1.8l-.4-1.3-.8 1.3zm-285.6 4c0 .6.5 1.3 1 1.6l1 .6v-1.5c0-.9-.4-1.6-1-1.6-.5 0-1 .4-1 .9zm290 .7v1.5l1-.6c.6-.3 1-1 1-1.6 0-.5-.4-.9-1-.9-.5 0-1 .7-1 1.6zm-277 4.5c0 1.9 5.5 7.2 7 6.7l1.1-.3-4.1-4-4-3.9v1.5zm261.5 2.9l-3.9 4h1.5c1.9 0 7.2-5.5 6.7-7l-.3-1.1-4 4.1zM160 421.8c0 .5.9 1.7 2 2.7l2 1.8v-1.4c0-1.6-1.9-3.9-3.2-3.9-.4 0-.8.4-.8.8zm277.2.4c-.7.7-1.2 1.9-1.2 2.7v1.4l2-1.8c2.1-1.9 2.6-3.5 1.2-3.5-.4 0-1.3.5-2 1.2zm-266.4 11c1.2 1.2 2.4 1.9 2.8 1.5 1-1-1.6-3.7-3.4-3.7h-1.6l2.2 2.2zm256.2-.7c-2.1 2.5-.1 3.1 2.3.7l2.1-2.2h-1.6c-.8 0-2.1.7-2.8 1.5zM182 435c0 .5.7 1 1.6 1h1.5l-.6-1c-.3-.6-1-1-1.6-1-.5 0-.9.4-.9 1zm233.5 0l-.6 1h1.5c.9 0 1.6-.5 1.6-1 0-.6-.4-1-.9-1-.6 0-1.3.4-1.6 1zM187 439c0 .5.7 1 1.6 1h1.5l-.6-1c-.3-.6-1-1-1.6-1-.5 0-.9.4-.9 1zm223.5 0l-.6 1h1.5c.9 0 1.6-.5 1.6-1 0-.6-.4-1-.9-1-.6 0-1.3.4-1.6 1zm-232 1c.3.5 1 1 1.6 1 .5 0 .9-.5.9-1 0-.6-.7-1-1.6-1h-1.5l.6 1zm240.5 0c0 .5.4 1 .9 1 .6 0 1.3-.5 1.6-1l.6-1h-1.5c-.9 0-1.6.4-1.6 1zm-228 2c0 .5.7 1 1.6 1h1.5l-.6-1c-.3-.6-1-1-1.6-1-.5 0-.9.4-.9 1zm215.5 0l-.6 1h1.5c.9 0 1.6-.5 1.6-1 0-.6-.4-1-.9-1-.6 0-1.3.4-1.6 1zm-223 2c.3.5 1 1 1.6 1 .5 0 .9-.5.9-1 0-.6-.7-1-1.6-1h-1.5l.6 1zm230.5 0c0 .5.4 1 .9 1 .6 0 1.3-.5 1.6-1l.6-1h-1.5c-.9 0-1.6.4-1.6 1zm-226.5 3c.3.5 1 1 1.6 1 .5 0 .9-.5.9-1 0-.6-.7-1-1.6-1h-1.5l.6 1zm222.5 0c0 .5.4 1 .9 1 .6 0 1.3-.5 1.6-1l.6-1h-1.5c-.9 0-1.6.4-1.6 1zm-207 3c0 .5.7 1 1.5 1s1.5.4 1.5 1c0 .5.8 1 1.8 1h1.7l-2.5-2c-2.8-2.2-4-2.5-4-1zm189.7.9c-3.8 2.5-4.3 3.1-2.4 3.1.8 0 2.2-.7 3.1-1.5.8-.8 1.9-1.5 2.5-1.5.6 0 1.1-.5 1.1-1 0-1.4-1-1.2-4.3.9zM194.5 452c.3.5 1 1 1.6 1 .5 0 .9-.5.9-1 0-.6-.7-1-1.6-1h-1.5l.6 1zm208.5 0c0 .5.4 1 .9 1 .6 0 1.3-.5 1.6-1l.6-1h-1.5c-.9 0-1.6.4-1.6 1zm-190 3.8c0 .4 3.6 2.6 8.1 4.7 7 3.4 9.9 5.8 9.9 7.9 0 .3-1.4 0-3.1-.6-1.6-.6-3.3-.8-3.6-.5-.7.8 6.3 3.7 10.4 4.4l3.2.5-1.6-3.4-1.6-3.5-10.3-5.1c-5.8-2.9-10.6-5.2-10.9-5.2-.3 0-.5.4-.5.8zm-10.5 1.2c.3.5 1 1 1.6 1 .5 0 .9-.5.9-1 0-.6-.7-1-1.6-1h-1.5l.6 1zm177.2 1.1c-2.2 1.1-3.6 2.3-3.3 2.6.8.8 8.6-2.7 8.6-3.9 0-1.2-1.1-.9-5.3 1.3zM395 457c0 .5.4 1 .9 1 .6 0 1.3-.5 1.6-1l.6-1h-1.5c-.9 0-1.6.4-1.6 1zm-186 3.5c0 .5 9.5 5.5 10.5 5.5.3 0 .5-.4.5-.8s-2-1.8-4.5-3c-4.4-2.1-6.5-2.7-6.5-1.7zm174.5 2.2c-5.8 3-6 3.1-5.3 3.9.6.6 12.8-5.3 12.8-6.1 0-1.1-2.7-.3-7.5 2.2zm-18.2 2l-3.2 1.6-1.2 2.9c-.6 1.6-.9 3.1-.5 3.5.7.7 12.5-2.7 13.2-3.9.7-1.2-.8-1-5.4.6l-4.1 1.5 1.1-2.4c.6-1.4 1.9-2.7 3-3 1-.4 1.8-1.1 1.8-1.6 0-1.2-.9-1.1-4.7.8z"/></g><path d="M395.8 135.4c-1 .7-1.8 1.8-1.8 2.4 0 .6 4.1 3.9 9 7.3 16.7 11.4 29.5 23.9 44.9 43.4 7.8 10 11.8 16.5 17.7 29 10.4 22.1 16 44.8 17.1 70l.6 14-1.2 11c-2.3 21.5-8.1 42.2-16.9 60.6-4.7 9.7-11.8 21.9-13.8 23.5-.7.6-3.3 3.7-5.7 7-11.6 15.8-27.3 30.6-44.7 42.2-6.3 4.3-14.7 9.3-18.6 11.2l-7.2 3.5-.6 3.4c-.4 1.8-.4 3.6-.1 3.9 1.1 1.1 24.4-11.4 33.7-18.1 12.7-9.1 24.6-19.7 32.9-29.5 4.1-4.7 8.7-9.9 10.3-11.5 8.4-8.9 22.8-35.9 29-54.7 10.4-31.3 12.3-65.1 5.6-97.9-2.8-13.3-9.2-31.8-15.4-44.6-5.4-11-16.9-29.2-20.5-32.3-1-1-5.1-5.4-9.1-10s-11.1-11.7-15.8-15.9c-9.2-8-24.8-19.3-26.6-19.3-.6 0-1.9.7-2.8 1.4zm-209.3 8.4c-8.5 6.4-21.7 18.9-33.3 31.4-10.2 11.1-22.4 31.3-29.2 48.3-17 42.5-18.5 88.1-4.3 130.9 4.5 13.4 15.2 35.4 22.5 45.8 10.5 15.2 28.1 33.3 44.5 45.7 10.2 7.7 23.3 15.8 27.2 16.8l2.1.5v-6.8l-4.2-2.4c-9-4.9-24.6-16.2-33-23.7-8.7-7.8-16.3-15.9-22.8-24.3-1.9-2.5-4.4-5.6-5.7-6.8-3-3.2-12.5-19.2-16.4-27.7-8.2-18.3-13.7-38.1-16-58.5l-1.2-10.5.6-14.5.6-14.5 2.1-11.4c2.7-14.7 7.9-30.8 14.5-44.7 5-10.7 13.4-24.8 15.9-26.9.6-.6 3.4-3.9 6.1-7.5 6.7-9 25.6-27.4 34.8-34l7.6-5.5.1-3.3V137h-1.7c-1 0-5.8 3-10.8 6.8z" fill="#f8f0d6"/><g fill="#faf4e1"><path d="M289 108.6c-.6 1.4-1 3-1 3.5v.9h17.9l.6-1c.3-.5.3-2.1-.1-3.5l-.6-2.5H290l-1 2.6zm95.8 20.8c-1.9 1.4-2.4 3.6-.9 3.6.4 0 6.5 3.8 13.5 8.4 6.9 4.6 12.6 8 12.6 7.7 0-.3-2.6-2.3-5.9-4.4-6.5-4.3-11.1-8.3-11.1-9.7 0-.5.8-1.3 1.7-1.8l1.7-1-4.2-2.1c-2.3-1.2-4.5-2.1-4.9-2.1-.4 0-1.6.7-2.5 1.4zm-181.1 3c-3.2 1.8-6.3 3.8-7 4.5l-1.1 1.1h1.7c.9 0 1.7-.5 1.7-1 0-.6.9-1 2-1s2 .4 2 .8c0 1.1-11.1 11.2-12.2 11.2-.4 0-.8.5-.8 1 0 .6 2.4-.7 5.3-2.8 2.8-2.2 8.2-5.8 12-8.2 3.7-2.3 6.7-4.5 6.7-4.9 0-.8-3.3-4.1-4.1-4.1-.2 0-3 1.6-6.2 3.4z"/><path d="M398 134.4c0 .2.7.7 1.6 1l1.5.6-.6-1c-.6-1-2.5-1.4-2.5-.6zm-206.6 5.8l-.7 1.1 1.1-.7c1.2-.7 1.6-1.6.8-1.6-.3 0-.8.5-1.2 1.2zm-3.5 2.5l-1.4 1.8 1.8-1.4c.9-.7 1.7-1.5 1.7-1.7 0-.8-.8-.3-2.1 1.3zm223.6.3c.3.5.8 1 1.1 1 .3 0 .2-.5-.1-1-.3-.6-.8-1-1.1-1-.3 0-.2.4.1 1zm2.5 1.4c0 .2.8 1 1.8 1.7l1.7 1.4-1.4-1.8c-1.3-1.6-2.1-2.1-2.1-1.3zm-230.6 1.8l-.7 1.1 1.1-.7c1.2-.7 1.6-1.6.8-1.6-.3 0-.8.5-1.2 1.2zm-5 4l-1.9 2.3 2.3-1.9c2.1-1.8 2.7-2.6 1.9-2.6-.2 0-1.2 1-2.3 2.2zm242.1-.2c1 1.1 2 2 2.3 2 .3 0-.3-.9-1.3-2s-2-2-2.3-2c-.3 0 .3.9 1.3 2zm-233.6 1.7l-1.4 1.8 1.8-1.4c.9-.7 1.7-1.5 1.7-1.7 0-.8-.8-.3-2.1 1.3zm224.1-1.3c0 .2.8 1 1.8 1.7l1.7 1.4-1.4-1.8c-1.3-1.6-2.1-2.1-2.1-1.3zm-229.6 5.8l-1.9 2.3 2.3-1.9c2.1-1.8 2.7-2.6 1.9-2.6-.2 0-1.2 1-2.3 2.2zm236.1-.2c1 1.1 2 2 2.3 2 .3 0-.3-.9-1.3-2s-2-2-2.3-2c-.3 0 .3.9 1.3 2zm8.5-1.7c0 .1 3.5 3.6 7.8 7.7l7.7 7.5-7.5-7.8c-6.9-7.1-8-8.2-8-7.4zm-260.5 7.9l-7 7.3 7.3-7c6.7-6.4 7.7-7.5 6.9-7.5-.1 0-3.4 3.3-7.2 7.2zm5.9 3l-1.9 2.3 2.3-1.9c2.1-1.8 2.7-2.6 1.9-2.6-.2 0-1.2 1-2.3 2.2zm256.1-.2c1 1.1 2 2 2.3 2 .3 0-.3-.9-1.3-2s-2-2-2.3-2c-.3 0 .3.9 1.3 2zm-273.1 9.2l-1.9 2.3 2.3-1.9c2.1-1.8 2.7-2.6 1.9-2.6-.2 0-1.2 1-2.3 2.2zm290.1-.2c1 1.1 2 2 2.3 2 .3 0-.3-.9-1.3-2s-2-2-2.3-2c-.3 0 .3.9 1.3 2zm-283.6 2.7l-1.4 1.8 1.8-1.4c.9-.7 1.7-1.5 1.7-1.7 0-.8-.8-.3-2.1 1.3zm276.1-1.3c0 .2.8 1 1.8 1.7l1.7 1.4-1.4-1.8c-1.3-1.6-2.1-2.1-2.1-1.3zm-288.1 4.3l-1.4 1.8 1.8-1.4c.9-.7 1.7-1.5 1.7-1.7 0-.8-.8-.3-2.1 1.3zm299.1-1.3c0 .2.8 1 1.8 1.7l1.7 1.4-1.4-1.8c-1.3-1.6-2.1-2.1-2.1-1.3zm-292.1 4.3l-1.4 1.8 1.8-1.4c1.6-1.3 2.1-2.1 1.3-2.1-.2 0-1 .8-1.7 1.7zm286.1-1.3c0 .2.8 1 1.8 1.7l1.7 1.4-1.4-1.8c-1.3-1.6-2.1-2.1-2.1-1.3zm-295.6 1.8l-.7 1.1 1.1-.7c1.2-.7 1.6-1.6.8-1.6-.3 0-.8.5-1.2 1.2zm306.1-.2c.3.5.8 1 1.1 1 .3 0 .2-.5-.1-1-.3-.6-.8-1-1.1-1-.3 0-.2.4.1 1zm-308.6 3.7l-1.4 1.8 1.8-1.4c.9-.7 1.7-1.5 1.7-1.7 0-.8-.8-.3-2.1 1.3zm9 0l-1.4 1.8 1.8-1.4c.9-.7 1.7-1.5 1.7-1.7 0-.8-.8-.3-2.1 1.3zm292.1-1.3c0 .2.8 1 1.8 1.7l1.7 1.4-1.4-1.8c-1.3-1.6-2.1-2.1-2.1-1.3zm10.5 1.6c.3.5.8 1 1.1 1 .3 0 .2-.5-.1-1-.3-.6-.8-1-1.1-1-.3 0-.2.4.1 1zm-308.2 6.2c-1.5 2-2.5 3.8-2 3.8.3 0 1.2-1.1 2.1-2.5 1.7-2.6 1.6-3.5-.1-1.3zm305.2 1.2c1 1.4 1.9 2.6 2.2 2.6.7 0-1.7-3.9-2.8-4.6-.6-.3-.3.5.6 2zm-316.1 3.8l-.7 1.1 1.1-.7c1.2-.7 1.6-1.6.8-1.6-.3 0-.8.5-1.2 1.2zm326.1-.2c.3.5.8 1 1.1 1 .3 0 .2-.5-.1-1-.3-.6-.8-1-1.1-1-.3 0-.2.4.1 1zm-321.1 4.2l-.7 1.1 1.1-.7c1.2-.7 1.6-1.6.8-1.6-.3 0-.8.5-1.2 1.2zM124 242c0 .7.3 1 .7.7.3-.4.3-1 0-1.4-.4-.3-.7 0-.7.7zm351 0c0 .7.3 1 .7.7.3-.4.3-1 0-1.4-.4-.3-.7 0-.7.7zm-358 1c0 .7.3 1 .7.7.3-.4.3-1 0-1.4-.4-.3-.7 0-.7.7zm365 0c0 .7.3 1 .7.7.3-.4.3-1 0-1.4-.4-.3-.7 0-.7.7zm-5 6c0 .7.3 1 .7.7.3-.4.3-1 0-1.4-.4-.3-.7 0-.7.7zm-362 1c0 .7.3 1 .7.7.3-.4.3-1 0-1.4-.4-.3-.7 0-.7.7zm369 0c0 .7.3 1 .7.7.3-.4.3-1 0-1.4-.4-.3-.7 0-.7.7zm-370 5c0 .7.3 1 .7.7.3-.4.3-1 0-1.4-.4-.3-.7 0-.7.7zm371 0c0 .7.3 1 .7.7.3-.4.3-1 0-1.4-.4-.3-.7 0-.7.7zm-365 3c0 .7.3 1 .7.7.3-.4.3-1 0-1.4-.4-.3-.7 0-.7.7zm359 0c0 .7.3 1 .7.7.3-.4.3-1 0-1.4-.4-.3-.7 0-.7.7zm-365.9 1.6l.1 1.9.5-1.3c.3-.7.2-1.6-.1-1.9-.3-.4-.6.2-.5 1.3zm373 0l.1 1.9.5-1.3c.3-.7.2-1.6-.1-1.9-.3-.4-.6.2-.5 1.3zm-367 4l.1 1.9.5-1.3c.3-.7.2-1.6-.1-1.9-.3-.4-.6.2-.5 1.3zm361 0l.1 1.9.5-1.3c.3-.7.2-1.6-.1-1.9-.3-.4-.6.2-.5 1.3zm-368 2l.1 1.9.5-1.3c.3-.7.2-1.6-.1-1.9-.3-.4-.6.2-.5 1.3zm375 0l.1 1.9.5-1.3c.3-.7.2-1.6-.1-1.9-.3-.4-.6.2-.5 1.3zm-369 4l.1 1.9.5-1.3c.3-.7.2-1.6-.1-1.9-.3-.4-.6.2-.5 1.3zm363 0l.1 1.9.5-1.3c.3-.7.2-1.6-.1-1.9-.3-.4-.6.2-.5 1.3zm-370 3l.1 1.9.5-1.3c.3-.7.2-1.6-.1-1.9-.3-.4-.6.2-.5 1.3zm377 0l.1 1.9.5-1.3c.3-.7.2-1.6-.1-1.9-.3-.4-.6.2-.5 1.3zM117.2 279c0 1.4.2 1.9.5 1.2.2-.6.2-1.8 0-2.5-.3-.6-.5-.1-.5 1.3zm365 0c0 1.4.2 1.9.5 1.2.2-.6.2-1.8 0-2.5-.3-.6-.5-.1-.5 1.3zm-372 5c0 1.4.2 1.9.5 1.2.2-.6.2-1.8 0-2.5-.3-.6-.5-.1-.5 1.3zm379 0c0 1.4.2 1.9.5 1.2.2-.6.2-1.8 0-2.5-.3-.6-.5-.1-.5 1.3zm-379 20.5v3l.5-1.8c.2-.9.2-2.3 0-3-.3-.6-.5.1-.5 1.8zm379 0v3l.5-1.8c.2-.9.2-2.3 0-3-.3-.6-.5.1-.5 1.8zm-372 6.5c0 1.4.2 1.9.5 1.2.2-.6.2-1.8 0-2.5-.3-.6-.5-.1-.5 1.3zm365 0c0 1.4.2 1.9.5 1.2.2-.6.2-1.8 0-2.5-.3-.6-.5-.1-.5 1.3zm-371 6c0 1.4.2 1.9.5 1.2.2-.6.2-1.8 0-2.5-.3-.6-.5-.1-.5 1.3zm377 0c0 1.4.2 1.9.5 1.2.2-.6.2-1.8 0-2.5-.3-.6-.5-.1-.5 1.3zm-370.1 2.6l.1 1.9.5-1.3c.3-.7.2-1.6-.1-1.9-.3-.4-.6.2-.5 1.3zm363 0l.1 1.9.5-1.3c.3-.7.2-1.6-.1-1.9-.3-.4-.6.2-.5 1.3zM112 324c0 .7.3 1 .7.7.3-.4.3-1 0-1.4-.4-.3-.7 0-.7.7zm375 0c0 .7.3 1 .7.7.3-.4.3-1 0-1.4-.4-.3-.7 0-.7.7zm-368 2c0 .7.3 1 .7.7.3-.4.3-1 0-1.4-.4-.3-.7 0-.7.7zm361 0c0 .7.3 1 .7.7.3-.4.3-1 0-1.4-.4-.3-.7 0-.7.7zm-367 4c0 .7.3 1 .7.7.3-.4.3-1 0-1.4-.4-.3-.7 0-.7.7zm373 0c0 .7.3 1 .7.7.3-.4.3-1 0-1.4-.4-.3-.7 0-.7.7zm-365.9 1.6l.1 1.9.5-1.3c.3-.7.2-1.6-.1-1.9-.3-.4-.6.2-.5 1.3zm359 0l.1 1.9.5-1.3c.3-.7.2-1.6-.1-1.9-.3-.4-.6.2-.5 1.3zM114 335c0 .7.3 1 .7.7.3-.4.3-1 0-1.4-.4-.3-.7 0-.7.7zm1 4c0 .7.3 1 .7.7.3-.4.3-1 0-1.4-.4-.3-.7 0-.7.7zm369 0c0 .7.3 1 .7.7.3-.4.3-1 0-1.4-.4-.3-.7 0-.7.7zm-362 1c0 .7.3 1 .7.7.3-.4.3-1 0-1.4-.4-.3-.7 0-.7.7zm355 0c0 .7.3 1 .7.7.3-.4.3-1 0-1.4-.4-.3-.7 0-.7.7zm-361 3c0 .7.3 1 .7.7.3-.4.3-1 0-1.4-.4-.3-.7 0-.7.7zm7 1c0 .7.3 1 .7.7.3-.4.3-1 0-1.4-.4-.3-.7 0-.7.7zm353 0c0 .7.3 1 .7.7.3-.4.3-1 0-1.4-.4-.3-.7 0-.7.7zm-358 6c0 .7.3 1 .7.7.3-.4.3-1 0-1.4-.4-.3-.7 0-.7.7zm363 0c0 .7.3 1 .7.7.3-.4.3-1 0-1.4-.4-.3-.7 0-.7.7zm-362 3c0 .7.3 1 .7.7.3-.4.3-1 0-1.4-.4-.3-.7 0-.7.7zm361 0c0 .7.3 1 .7.7.3-.4.3-1 0-1.4-.4-.3-.7 0-.7.7zm-339.5 45c.3.5.8 1 1.1 1 .3 0 .2-.5-.1-1-.3-.6-.8-1-1.1-1-.3 0-.2.4.1 1zm8 0c.3.5.8 1 1.1 1 .3 0 .2-.5-.1-1-.3-.6-.8-1-1.1-1-.3 0-.2.4.1 1zm301 0l-.6 1 1.5-.6c1.8-.7 2.1-1.4.7-1.4-.6 0-1.3.4-1.6 1zm8.9.2l-.7 1.1 1.1-.7c1.2-.7 1.6-1.6.8-1.6-.3 0-.8.5-1.2 1.2zM142.5 401c.3.5.8 1 1.1 1 .3 0 .2-.5-.1-1-.3-.6-.8-1-1.1-1-.3 0-.2.4.1 1zm9 0c.3.5.8 1 1.1 1 .3 0 .2-.5-.1-1-.3-.6-.8-1-1.1-1-.3 0-.2.4.1 1zm295.9.2l-.7 1.1 1.1-.7c1.2-.7 1.6-1.6.8-1.6-.3 0-.8.5-1.2 1.2zm9 0l-.7 1.1 1.1-.7c.7-.4 1.2-.9 1.2-1.2 0-.8-.9-.4-1.6.8zM144 403.4c0 .2.8 1 1.8 1.7l1.7 1.4-1.4-1.8c-1.3-1.6-2.1-2.1-2.1-1.3zm9 0c0 .2.8 1 1.8 1.7l1.7 1.4-1.4-1.8c-1.3-1.6-2.1-2.1-2.1-1.3zm291.9 1.3l-1.4 1.8 1.8-1.4c1.6-1.3 2.1-2.1 1.3-2.1-.2 0-1 .8-1.7 1.7zm9 0l-1.4 1.8 1.8-1.4c.9-.7 1.7-1.5 1.7-1.7 0-.8-.8-.3-2.1 1.3zM147.5 408c.3.5.8 1 1.1 1 .3 0 .2-.5-.1-1-.3-.6-.8-1-1.1-1-.3 0-.2.4.1 1zm303.9.2l-.7 1.1 1.1-.7c1.2-.7 1.6-1.6.8-1.6-.3 0-.8.5-1.2 1.2zm-294.4.2c0 .2.8 1 1.8 1.7l1.7 1.4-1.4-1.8c-1.3-1.6-2.1-2.1-2.1-1.3zm283.9 1.3l-1.4 1.8 1.8-1.4c1.6-1.3 2.1-2.1 1.3-2.1-.2 0-1 .8-1.7 1.7zm-290.8 1.6c.2.1 1.3.9 2.4 1.7l2 1.5-1.4-1.8c-.7-.9-1.8-1.7-2.4-1.7-.6 0-.8.1-.6.3zm296.8 1.4l-1.4 1.8 1.8-1.4c.9-.7 1.7-1.5 1.7-1.7 0-.8-.8-.3-2.1 1.3zM164 416.5c1.3 1.4 2.6 2.5 2.8 2.5.3 0-.5-1.1-1.8-2.5s-2.6-2.5-2.8-2.5c-.3 0 .5 1.1 1.8 2.5zm270.9.2l-2.4 2.8 2.8-2.4c1.5-1.4 2.7-2.6 2.7-2.8 0-.8-.8-.1-3.1 2.4zM157 418.5c1.3 1.4 2.6 2.5 2.8 2.5.3 0-.5-1.1-1.8-2.5s-2.6-2.5-2.8-2.5c-.3 0 .5 1.1 1.8 2.5zm284.9.2l-2.4 2.8 2.8-2.4c2.5-2.3 3.2-3.1 2.4-3.1-.2 0-1.4 1.2-2.8 2.7zM178 430.5c1.3 1.4 2.6 2.5 2.8 2.5.3 0-.5-1.1-1.8-2.5s-2.6-2.5-2.8-2.5c-.3 0 .5 1.1 1.8 2.5zm242.9.2l-2.4 2.8 2.8-2.4c2.5-2.3 3.2-3.1 2.4-3.1-.2 0-1.4 1.2-2.8 2.7zm-245 6.6c2.6 2.8 3.1 3.2 3.1 1.9 0-.4-1.3-1.6-2.8-2.6l-2.7-1.9 2.4 2.6zm8.1-1.9c0 .2.8 1 1.8 1.7l1.7 1.4-1.4-1.8c-1.3-1.6-2.1-2.1-2.1-1.3zm229.9 1.3l-1.4 1.8 1.8-1.4c1.6-1.3 2.1-2.1 1.3-2.1-.2 0-1 .8-1.7 1.7zm9.2.4c-1.3 1.1-2.2 2.2-1.9 2.4.2.3 1.5-.6 2.8-2 2.8-3 2.4-3.2-.9-.4zM189 439.4c0 .2.8 1 1.8 1.7l1.7 1.4-1.4-1.8c-1.3-1.6-2.1-2.1-2.1-1.3zm219.9 1.3l-1.4 1.8 1.8-1.4c1.6-1.3 2.1-2.1 1.3-2.1-.2 0-1 .8-1.7 1.7zM181.5 442c1 1.1 2 2 2.3 2 .3 0-.3-.9-1.3-2s-2-2-2.3-2c-.3 0 .3.9 1.3 2zm235.9.2l-1.9 2.3 2.3-1.9c2.1-1.8 2.7-2.6 1.9-2.6-.2 0-1.2 1-2.3 2.2zM185 444.5c0 .5 11.3 8.5 17 12 2.5 1.5 4.1 2.3 3.5 1.7-1.4-1.4-20.5-14.2-20.5-13.7zm11.5.5c.3.5.8 1 1.1 1 .3 0 .2-.5-.1-1-.3-.6-.8-1-1.1-1-.3 0-.2.4.1 1zm205.9.2l-.7 1.1 1.1-.7c.7-.4 1.2-.9 1.2-1.2 0-.8-.9-.4-1.6.8zm3 5.2c-4.9 3.5-9.7 6.5-10.5 6.8-.8.3-1.2.8-.9 1.1.3.3 4.6-2.1 9.5-5.4 7.9-5.3 12.9-9.1 11.5-8.8-.3 0-4.6 2.9-9.6 6.3zM199.5 447c.3.5.8 1 1.1 1 .3 0 .2-.5-.1-1-.3-.6-.8-1-1.1-1-.3 0-.2.4.1 1zm199.9.2l-.7 1.1 1.1-.7c1.2-.7 1.6-1.6.8-1.6-.3 0-.8.5-1.2 1.2zM205.5 451c.3.5.8 1 1.1 1 .3 0 .2-.5-.1-1-.3-.6-.8-1-1.1-1-.3 0-.2.4.1 1zm187.9.2l-.7 1.1 1.1-.7c.7-.4 1.2-.9 1.2-1.2 0-.8-.9-.4-1.6.8zM210.5 454c.3.5.8 1 1.1 1 .3 0 .2-.5-.1-1-.3-.6-.8-1-1.1-1-.3 0-.2.4.1 1zm4.5 3c0 .5 1 1.5 2.3 2.1 2.2 1.2 3.7 2.8 3.7 4.1 0 .4-2.9-.3-6.5-1.6s-6.5-2.2-6.5-2c0 .6 14 7.5 18.2 9l3.8 1.3v-1.2c0-.7-.3-2.2-.6-3.5l-.7-2.3-6.8-3.5c-3.8-1.9-6.9-3-6.9-2.4zm169.8 5.5c-3.6 1.9-8 3.7-9.7 4l-3.1.5.6-2.5c.3-1.4.2-2.5-.2-2.5-.5 0-2.3.9-4 1.9l-3.1 1.9-.7 2.7c-.4 1.5-.5 2.9-.3 3.1.7.7 11.1-3.3 19.5-7.5 4.5-2.3 8.2-4.3 8.2-4.6 0-.7.3-.8-7.2 3z"/></g><path d="M392.6 132.6c-.3.8-1.2 1.4-2 1.4s-1.8.5-2.2 1.2l-.7 1.1 1.1-.7 1.1-.7 2.1 2.1c1.1 1.1 2.5 2 3 2 .6 0 1 .4 1 1 0 .5.5 1 1.2 1h1.1l-1.6-1.8-1.6-1.8 2-1.2 2.1-1.3-1.2-1.3c-.6-.8-1.9-1.6-3-1.9l-1.9-.5-.5 1.4zm-192.8 2.1c-1 .2-1.8.9-1.8 1.4 0 .5-.6.9-1.4.9-.8 0-1.7.4-2 .9l-.6.9 2-.5 2-.5v2.4c0 1.3-.6 3-1.2 3.8-.7.7.5-.1 2.8-1.8s4.4-2.9 4.8-2.5c1 1 .7-1.6-.4-3.8-1.1-1.9-1.3-2-4.2-1.2zm200.2.7c0 .2.7.7 1.6 1l1.5.6-.6-1c-.6-1-2.5-1.4-2.5-.6zm4.5 2.6c.3.5.8 1 1.1 1 .3 0 .2-.5-.1-1-.3-.6-.8-1-1.1-1-.3 0-.2.4.1 1zm3 2c.3.5.8 1 1.1 1 .3 0 .2-.5-.1-1-.3-.6-.8-1-1.1-1-.3 0-.2.4.1 1zm-8.2 2.7c.4.3 1 .3 1.4 0 .3-.4 0-.7-.7-.7s-1 .3-.7.7zm2.7 1.3c0 .5.5 1 1.1 1 .5 0 .7-.5.4-1-.3-.6-.8-1-1.1-1-.2 0-.4.4-.4 1zm-208.5 2c-.3.5-.1 1 .4 1 .6 0 1.1-.5 1.1-1 0-.6-.2-1-.4-1-.3 0-.8.4-1.1 1zm211.8.7c.4.3 1 .3 1.4 0 .3-.4 0-.7-.7-.7s-1 .3-.7.7zM189 149.5l-1.3 1.5 1.7-.6c.9-.3 1.6-1 1.6-1.5 0-1.3-.6-1.1-2 .6zm220-.6c0 .5.7 1.2 1.6 1.5l1.7.6-1.3-1.5c-1.4-1.7-2-1.9-2-.6zm-225.1 4.8l-1.4 1.8 2-1.5c1.1-.8 2.2-1.6 2.4-1.7.2-.2 0-.3-.6-.3s-1.7.8-2.4 1.7zm229.2-1.4c.2.1 1.3.9 2.4 1.7l2 1.5-1.4-1.8c-.7-.9-1.8-1.7-2.4-1.7-.6 0-.8.1-.6.3zm-237.2 8.4l-3.4 3.8 3.5-3c1.9-1.6 3.9-3.3 4.5-3.7l.9-.8h-1c-.6 0-2.6 1.7-4.5 3.7zm243.7-2.9c.5.4 2.5 2.1 4.4 3.7l3.5 3-3.4-3.8c-1.9-2-3.9-3.7-4.5-3.7h-1l1 .8zm-252.7 11.9l-3.4 3.8 3.8-3.4c2-1.9 3.7-3.6 3.7-3.8 0-.8-.8 0-4.1 3.4zm265.7.4c2.1 2.5 4.1 4.4 4.4 4.2.2-.2-1.6-2.3-4-4.6l-4.4-4.2 4 4.6zm-276.2 2.1l-.7 1.1 1.1-.7c1.2-.7 1.6-1.6.8-1.6-.3 0-.8.5-1.2 1.2zm286.1-.2c.3.5.8 1 1.1 1 .3 0 .2-.5-.1-1-.3-.6-.8-1-1.1-1-.3 0-.2.4.1 1zm-283.6 6.7l-1.4 1.8 1.8-1.4c.9-.7 1.7-1.5 1.7-1.7 0-.8-.8-.3-2.1 1.3zm280.1-1.3c0 .2.8 1 1.8 1.7l1.7 1.4-1.4-1.8c-1.3-1.6-2.1-2.1-2.1-1.3zm-288.7 1.3c.4.3 1 .3 1.4 0 .3-.4 0-.7-.7-.7s-1 .3-.7.7zm4.2 5.4c-.4.6-.5 1.2-.2 1.5.2.3.7-.2 1-1.1.7-1.7.1-2-.8-.4zm290.1.2c.3 1 .9 1.5 1.2 1.2.3-.3 0-1.1-.7-1.8l-1.2-1.2.7 1.8zm-303.2 5.9l-.7 1.1 1.1-.7c1.2-.7 1.6-1.6.8-1.6-.3 0-.8.5-1.2 1.2zm7.6.3c-.7.9-1.1 1.7-.9 2 .3.2 1-.5 1.7-1.5 1.4-2.4 1-2.6-.8-.5zm300.2.5c.7 1.1 1.6 2 2 2 1.5 0 .8-1.5-1.2-2.8l-2-1.2 1.2 2zm8.3-1c.3.5.8 1 1.1 1 .3 0 .2-.5-.1-1-.3-.6-.8-1-1.1-1-.3 0-.2.4.1 1zm-318.1 3.2l-.7 1.1 1.1-.7c.7-.4 1.2-.9 1.2-1.2 0-.8-.9-.4-1.6.8zm320.1-.2c.3.5.8 1 1.1 1 .3 0 .2-.5-.1-1-.3-.6-.8-1-1.1-1-.3 0-.2.4.1 1zM146 195c0 .7.3 1 .7.7.3-.4.3-1 0-1.4-.4-.3-.7 0-.7.7zm307 0c0 .7.3 1 .7.7.3-.4.3-1 0-1.4-.4-.3-.7 0-.7.7zm-309.6 4.2l-.7 1.1 1.1-.7c1.2-.7 1.6-1.6.8-1.6-.3 0-.8.5-1.2 1.2zm312.1-.2c.3.5.8 1 1.1 1 .3 0 .2-.5-.1-1-.3-.6-.8-1-1.1-1-.3 0-.2.4.1 1zM133 204c-.6 1.1-.8 2-.6 2 .3 0 1-.9 1.6-2 .6-1.1.8-2 .6-2-.3 0-1 .9-1.6 2zm7.6-.3l-.7 1.8 1.2-1.2c.7-.7 1-1.5.7-1.8-.3-.3-.9.2-1.2 1.2zm325.4.3c.6 1.1 1.3 2 1.6 2 .2 0 0-.9-.6-2s-1.3-2-1.6-2c-.2 0 0 .9.6 2zm-7.5 0c.3.5.8 1 1.1 1 .3 0 .2-.5-.1-1-.3-.6-.8-1-1.1-1-.3 0-.2.4.1 1zM126 218c0 .7.3 1 .7.7.3-.4.3-1 0-1.4-.4-.3-.7 0-.7.7zm347 0c0 .7.3 1 .7.7.3-.4.3-1 0-1.4-.4-.3-.7 0-.7.7zm-342 5c0 .7.3 1 .7.7.3-.4.3-1 0-1.4-.4-.3-.7 0-.7.7zm337 0c0 .7.3 1 .7.7.3-.4.3-1 0-1.4-.4-.3-.7 0-.7.7zm-348 10c0 .7.3 1 .7.7.3-.4.3-1 0-1.4-.4-.3-.7 0-.7.7zm7 0c0 .7.3 1 .7.7.3-.4.3-1 0-1.4-.4-.3-.7 0-.7.7zm345 0c0 .7.3 1 .7.7.3-.4.3-1 0-1.4-.4-.3-.7 0-.7.7zm-346 3c0 .7.3 1 .7.7.3-.4.3-1 0-1.4-.4-.3-.7 0-.7.7zm347 0c0 .7.3 1 .7.7.3-.4.3-1 0-1.4-.4-.3-.7 0-.7.7zm-348 3c0 .7.3 1 .7.7.3-.4.3-1 0-1.4-.4-.3-.7 0-.7.7zm349 0c0 .7.3 1 .7.7.3-.4.3-1 0-1.4-.4-.3-.7 0-.7.7zm-363 35c0 .7.3 1 .7.7.3-.4.3-1 0-1.4-.4-.3-.7 0-.7.7zm377 0c0 .7.3 1 .7.7.3-.4.3-1 0-1.4-.4-.3-.7 0-.7.7zm-371 3c0 .7.3 1 .7.7.3-.4.3-1 0-1.4-.4-.3-.7 0-.7.7zm365 0c0 .7.3 1 .7.7.3-.4.3-1 0-1.4-.4-.3-.7 0-.7.7zm-371.8 10.5v3l.5-1.8c.2-.9.2-2.3 0-3-.3-.6-.5.1-.5 1.8zm379 0v3l.5-1.8c.2-.9.2-2.3 0-3-.3-.6-.5.1-.5 1.8zm-379 13.5c0 1.4.2 1.9.5 1.2.2-.6.2-1.8 0-2.5-.3-.6-.5-.1-.5 1.3zm379 0c0 1.4.2 1.9.5 1.2.2-.6.2-1.8 0-2.5-.3-.6-.5-.1-.5 1.3zm-4.2 34c0 .7.3 1 .7.7.3-.4.3-1 0-1.4-.4-.3-.7 0-.7.7zm-364 1c0 .7.3 1 .7.7.3-.4.3-1 0-1.4-.4-.3-.7 0-.7.7zm357 0c0 .7.3 1 .7.7.3-.4.3-1 0-1.4-.4-.3-.7 0-.7.7zm5 7c0 .7.3 1 .7.7.3-.4.3-1 0-1.4-.4-.3-.7 0-.7.7zm-366 4c0 .7.3 1 .7.7.3-.4.3-1 0-1.4-.4-.3-.7 0-.7.7zm365 0c0 .7.3 1 .7.7.3-.4.3-1 0-1.4-.4-.3-.7 0-.7.7zm-361 12c0 .7.3 1 .7.7.3-.4.3-1 0-1.4-.4-.3-.7 0-.7.7zm7 0c0 .7.3 1 .7.7.3-.4.3-1 0-1.4-.4-.3-.7 0-.7.7zm343 0c0 .7.3 1 .7.7.3-.4.3-1 0-1.4-.4-.3-.7 0-.7.7zm7 0c0 .7.3 1 .7.7.3-.4.3-1 0-1.4-.4-.3-.7 0-.7.7zm-345 12c0 .7.3 1 .7.7.3-.4.3-1 0-1.4-.4-.3-.7 0-.7.7zm333 0c0 .7.3 1 .7.7.3-.4.3-1 0-1.4-.4-.3-.7 0-.7.7zm-5 10c-.6 1.1-.8 2-.6 2 .3 0 1-.9 1.6-2 .6-1.1.8-2 .6-2-.3 0-1 .9-1.6 2zm-322.5 1c.3.5.8 1 1.1 1 .3 0 .2-.5-.1-1-.3-.6-.8-1-1.1-1-.3 0-.2.4.1 1zm4 7c.3.5.8 1 1.1 1 .3 0 .2-.5-.1-1-.3-.6-.8-1-1.1-1-.3 0-.2.4.1 1zm313.9.2l-.7 1.1 1.1-.7c.7-.4 1.2-.9 1.2-1.2 0-.8-.9-.4-1.6.8zm-320.9.8c.3.5.8 1 1.1 1 .3 0 .2-.5-.1-1-.3-.6-.8-1-1.1-1-.3 0-.2.4.1 1zm327.9.2l-.7 1.1 1.1-.7c1.2-.7 1.6-1.6.8-1.6-.3 0-.8.5-1.2 1.2zM144.5 392c.3.5.8 1 1.1 1 .3 0 .2-.5-.1-1-.3-.6-.8-1-1.1-1-.3 0-.2.4.1 1zm309.9.2l-.7 1.1 1.1-.7c.7-.4 1.2-.9 1.2-1.2 0-.8-.9-.4-1.6.8zM138.5 395c.3.5.8 1 1.1 1 .3 0 .2-.5-.1-1-.3-.6-.8-1-1.1-1-.3 0-.2.4.1 1zm321.9.2l-.7 1.1 1.1-.7c1.2-.7 1.6-1.6.8-1.6-.3 0-.8.5-1.2 1.2zm-310.1 5.5c.4.3 1 .3 1.4 0 .3-.4 0-.7-.7-.7s-1 .3-.7.7zm-1.8 8.3c.3.5.8 1 1.1 1 .3 0 .2-.5-.1-1-.3-.6-.8-1-1.1-1-.3 0-.2.4.1 1zm301 0l-.6 1 1.5-.6c1.8-.7 2.1-1.4.7-1.4-.6 0-1.3.4-1.6 1zm-295.4 5.7c.7 1.2 1.5 2 1.8 1.7.3-.2-.3-1.2-1.3-2.2l-1.8-1.7 1.3 2.2zm7.4-.7c.3.5.8 1 1.1 1 .3 0 .2-.5-.1-1-.3-.6-.8-1-1.1-1-.3 0-.2.4.1 1zm275.9.2l-.7 1.1 1.1-.7c.7-.4 1.2-.9 1.2-1.2 0-.8-.9-.4-1.6.8zm7.6.3c-.7.9-1.1 1.7-.9 2 .3.2 1-.5 1.7-1.5 1.4-2.4 1-2.6-.8-.5zm-282.6 9.7c3.1 3.9 12.6 12.7 12.6 11.6 0-.2-3.7-3.9-8.2-8.3l-8.1-8 3.7 4.7zm270.1 4l-8 8.1 4.7-3.7c3.9-3.1 12.7-12.6 11.6-12.6-.2 0-3.9 3.7-8.3 8.2zm-252 4.8c.3.5.8 1 1.1 1 .3 0 .2-.5-.1-1-.3-.6-.8-1-1.1-1-.3 0-.2.4.1 1zm237.9.2l-.7 1.1 1.1-.7c1.2-.7 1.6-1.6.8-1.6-.3 0-.8.5-1.2 1.2zM178 438.9c0 .5.7 1.2 1.6 1.5l1.7.6-1.3-1.5c-1.4-1.7-2-1.9-2-.6zm242 .6l-1.3 1.5 1.7-.6c.9-.3 1.6-1 1.6-1.5 0-1.3-.6-1.1-2 .6zM193.5 443c.3.5.8 1 1.1 1 .3 0 .2-.5-.1-1-.3-.6-.8-1-1.1-1-.3 0-.2.4.1 1zm211.9.2l-.7 1.1 1.1-.7c1.2-.7 1.6-1.6.8-1.6-.3 0-.8.5-1.2 1.2zm-222.4.2c0 .2.7.7 1.6 1l1.5.6-.6-1c-.6-1-2.5-1.4-2.5-.6zm231.5.6l-.6 1 1.5-.6c1.8-.7 2.1-1.4.7-1.4-.6 0-1.3.4-1.6 1zm-212 5c.3.5.8 1 1.1 1 .3 0 .2-.5-.1-1-.3-.6-.8-1-1.1-1-.3 0-.2.4.1 1zm193.9.2l-.7 1.1 1.1-.7c1.2-.7 1.6-1.6.8-1.6-.3 0-.8.5-1.2 1.2zm-205.1.5c.4.3 1 .3 1.4 0 .3-.4 0-.7-.7-.7s-1 .3-.7.7zm216 0c.4.3 1 .3 1.4 0 .3-.4 0-.7-.7-.7s-1 .3-.7.7zm-213 2c.4.3 1 .3 1.4 0 .3-.4 0-.7-.7-.7s-1 .3-.7.7zm210 0c.4.3 1 .3 1.4 0 .3-.4 0-.7-.7-.7s-1 .3-.7.7zm-207 2c.4.3 1 .3 1.4 0 .3-.4 0-.7-.7-.7s-1 .3-.7.7zm204 0c.4.3 1 .3 1.4 0 .3-.4 0-.7-.7-.7s-1 .3-.7.7zm-190.3.7c0 .2.7.7 1.6 1l1.5.6-.6-1c-.6-1-2.5-1.4-2.5-.6zm174.4 1.2l-1.9 1.5 2.3-1.1c1.2-.6 2.2-1.3 2.2-1.5 0-.8-.5-.6-2.6 1.1zM215 458.5c0 .7-.7 1.8-1.6 2.3l-1.6.9 4.3 1.7c2.4 1 4.7 2.3 5.1 2.9l.8 1.2v-3c0-3.6-.8-4.8-3.7-6.4-2.8-1.4-3.3-1.4-3.3.4zm177.6.1c-1.1.8-1.6 1.4-1 1.4 1.3 0 3.9-1.8 3.4-2.4-.3-.2-1.4.2-2.4 1zM206 459c.8.5 2 1 2.5 1 .6 0 .3-.5-.5-1s-1.9-1-2.5-1c-.5 0-.3.5.5 1zm167 2.5c-1.4.8-2.2 1.4-1.8 1.5.4 0 .3 1.2-.3 2.7l-1 2.6 1.1 1.1 1 1v-2.6l1.4.5 1.3.5 1-4.4c.6-2.4.7-4.4.4-4.4-.3.1-1.7.7-3.1 1.5zm3 5.6c0 .5.5.7 1 .4.6-.3 1-.8 1-1.1 0-.2-.4-.4-1-.4-.5 0-1 .5-1 1.1z" fill="#f9f2db"/><path d="M287.8 106.7l-2.8.4v4.7l1.6.6c2 .8 18 .6 21.9-.3l3-.7-.3-1.9c-.2-1.1-.5-2.1-.6-2.2-.1-.1-2.2-.4-4.6-.7-2.5-.3-3.7-.3-2.7 0 .9.3 1.7.9 1.7 1.4 0 .5.3 1.5.6 2.4l.6 1.6h-16.9l.4-2.4c.3-1.4 1.3-2.7 2.2-2.9l1.6-.5-1.5.1c-.8 0-2.7.2-4.2.4zm-74.6 20.6l-4.3 2.3 2 1.8c1.1 1 1.8 2.3 1.5 2.8-.4.6 1.2-.1 3.5-1.4 2.2-1.2 4.1-2.8 4.1-3.5 0-1.7-1.1-4.3-1.9-4.3-.3.1-2.5 1.1-4.9 2.3zm169.3.7l-1.8 2 1.3 1.5c.7.9 1.6 1.2 1.9.7.3-.4 1.6-1.5 2.8-2.3l2.3-1.6-2.4-1.1-2.4-1.1-1.7 1.9zm-173.1 8.2l-.7 1.1 1.1-.7c1.2-.7 1.6-1.6.8-1.6-.3 0-.8.5-1.2 1.2zm-3 2l-.7 1.1 1.1-.7c1.2-.7 1.6-1.6.8-1.6-.3 0-.8.5-1.2 1.2zm-34 17l-.7 1.1 1.1-.7c.7-.4 1.2-.9 1.2-1.2 0-.8-.9-.4-1.6.8zm7 3l-.7 1.1 1.1-.7c.7-.4 1.2-.9 1.2-1.2 0-.8-.9-.4-1.6.8zm240.1-.2c.3.5.8 1 1.1 1 .3 0 .2-.5-.1-1-.3-.6-.8-1-1.1-1-.3 0-.2.4.1 1zm-257.1 17.2l-.7 1.1 1.1-.7c1.2-.7 1.6-1.6.8-1.6-.3 0-.8.5-1.2 1.2zm274.1-.2c.3.5.8 1 1.1 1 .3 0 .2-.5-.1-1-.3-.6-.8-1-1.1-1-.3 0-.2.4.1 1zm13.8 5.7c.4.3 1 .3 1.4 0 .3-.4 0-.7-.7-.7s-1 .3-.7.7zm-300 9c.4.3 1 .3 1.4 0 .3-.4 0-.7-.7-.7s-1 .3-.7.7zm300 3c.4.3 1 .3 1.4 0 .3-.4 0-.7-.7-.7s-1 .3-.7.7zM482 281c0 .7.3 1 .7.7.3-.4.3-1 0-1.4-.4-.3-.7 0-.7.7zm-372 1c0 .7.3 1 .7.7.3-.4.3-1 0-1.4-.4-.3-.7 0-.7.7zm379 0c0 .7.3 1 .7.7.3-.4.3-1 0-1.4-.4-.3-.7 0-.7.7zm-379 25c0 .7.3 1 .7.7.3-.4.3-1 0-1.4-.4-.3-.7 0-.7.7zm379 0c0 .7.3 1 .7.7.3-.4.3-1 0-1.4-.4-.3-.7 0-.7.7zm-7 2c0 .7.3 1 .7.7.3-.4.3-1 0-1.4-.4-.3-.7 0-.7.7zM166.5 419c.3.5.8 1 1.1 1 .3 0 .2-.5-.1-1-.3-.6-.8-1-1.1-1-.3 0-.2.4.1 1zm265.9.2l-.7 1.1 1.1-.7c1.2-.7 1.6-1.6.8-1.6-.3 0-.8.5-1.2 1.2zM166 428.5c1.9 1.9 3.6 3.5 3.9 3.5.3 0-1-1.6-2.9-3.5s-3.6-3.5-3.9-3.5c-.3 0 1 1.6 2.9 3.5zm266.9.2l-3.4 3.8 3.8-3.4c2-1.9 3.7-3.6 3.7-3.8 0-.8-.8 0-4.1 3.4zM174 426.4c0 .2.8 1 1.8 1.7l1.7 1.4-1.4-1.8c-1.3-1.6-2.1-2.1-2.1-1.3zm249.9 1.3l-1.4 1.8 1.8-1.4c1.6-1.3 2.1-2.1 1.3-2.1-.2 0-1 .8-1.7 1.7zm-196.5 35.9c.3.9.9 2.6 1.2 3.9.6 2.2 4.4 4.3 4.4 2.4 0-2-3-6.7-4.6-7.3l-1.6-.6.6 1.6zm139 1.2c-1.3.8-3.4 4.6-3.4 6.1 0 .6.8 1.1 1.7 1.1.9 0 1.4-.3 1-.6-.3-.4 0-2.2.8-4 .8-1.9 1.3-3.4 1.2-3.4-.1 0-.7.4-1.3.8zm-143.1 2.9c.4.3 1 .3 1.4 0 .3-.4 0-.7-.7-.7s-1 .3-.7.7zm3 1c.4.3 1 .3 1.4 0 .3-.4 0-.7-.7-.7s-1 .3-.7.7z" fill="#faf6e8"/></svg>