<svg width="494" height="405" fill="none" xmlns="http://www.w3.org/2000/svg"><path d="M333.611 4.529l-95.878-1.546s1.003.926.987 2.57c0 .81-.257 1.786-.987 2.91l-.406.479-99.359 117.183a407.89 407.89 0 00-6.689-1.298L234.758 1.669s.447-.966 2.262-1.198a7.22 7.22 0 01.879-.05l93.822 1.538s3.265.339 1.89 2.57zm-83.337 263.314l-.174 5.653s-26.632-.347-34.365 19.015c0 0-4.99 53.104-6.698 86.177l-3.274.586-.489.083-10.112 1.818-.058-3.405-1.235-85.003s-6.573-11.511-17.913-11.049l-15.724.645v-5.785l90.042-8.735zm-140.281 90.408c-.912-.033-1.997-.083-3.158-.141l-2.288-88.209 4.311 1.677 1.135 86.673zm35.419-80.64l-2.321 93.152-1.55 1.669-9.151 1.413-.854-94.953 13.876-1.281z" fill="#F1DC9A"/><path d="M160.232 276.578v5.785l-12.632-4.752 12.632-1.033zm127.5-21.073l-2.752 7.363s-.514 2.232-3.092 1.885l-31.614 3.082-90.042 8.735-12.632 1.033h-2.188l-13.876 1.281h-3.431l-.174-8.305 159.801-15.074zm-159.636 23.387l-.597-.223-5.76-2.091-12.873-5.008-4.31-1.669-12.757-4.76-17.274-6.652-8.761-3.364-63.41-24.544v-7.198l2.934 1.099 1.061.405 121.573 45.7.174 8.305zm-97.899-83.648c-5.198 8.182-16.147 8.735-20.49 9.248-4.344.512-4.419 3.471-4.419 3.471v16.519l-2.926-1.099-1.93-1.025v-15.42s-.39-4.116 4.168-4.405c0 0 18.94-.306 24.279-14.61 0 0 6.44-13.876-1.633-29.379l4.94 1.587c3.605 5.735 3.995 13.189 3.995 13.189.928 13.702-5.984 21.924-5.984 21.924z" fill="#F1DC9A"/><path d="M84.621 155.032c-.083.678-.563 1.421-1.094 2.041-8.993.017-24.585 1.025-36.239 1.876-8.645.636-15.119 1.182-15.119 1.182l-4.94-1.587 57.392-3.512zm110.541 226.143l-3.258-1.859-3.962-2.256s-.904-47.378-6.059-87.805l11.986 3.512 1.235 85.003.058 3.405zm-1.293-88.408l-11.986-3.512-5.926-7.537c11.339-.462 17.912 11.049 17.912 11.049zm-72.37-36.758c-.73 4.479-3.374 3.694-3.374 3.694L9.019 219.012l-1.724-3.083-.945-.347 4.384.174 3.092 1.198 4.526 1.644 103.147 37.411z" fill="#F1DC9A"/><path d="M121.656 250.026v4.545a13.642 13.642 0 01-.158 1.446L18.36 218.607v-5.182l103.296 36.601zm0-.777v.769L18.36 213.425l8.678-.314 96.715 33.651c-2.321 1.049-2.097 2.487-2.097 2.487z" fill="#F1DC9A"/><path d="M27.039 213.103l-8.679.322v5.182l-4.534-1.645-3.092-1.198 5.67-3.041 8.247-.323 2.388.703zm466.513-63.302c0 2.231-18.351 4.074-18.351 4.074l-49.228 4.884c-27.452 2.314-62.506 5.785-62.506 5.785-42.273 4.495-53.355 9.123-53.355 9.123-5.156 1.545-5.156 8.099-5.156 8.099-.647 3.214-18.045 3.859-18.045 3.859l-129.008 9.247-6.275-1.884 12.202-1.462-116.534-31.404v-1.181c11.654-.851 27.246-1.86 36.24-1.876-.672.793-1.401 1.38-1.401 1.38l-1.973 5.57 80.418 21.073 3.913-10.636 31.141 8.066 10.311-.86 21.991 5.653 19.056-1.198 2.685.9 5.537-.38 2.703-.19 9.954-.677 20.01-1.381s5.28-.553 7.12-1.504c.141-.074.257-.148.356-.223 0 0 1.683-1.099 1.484-2.314 0 0-.257-4.751 5.612-7.131 0 0 11.77-4.479 33.014-7.248a252.916 252.916 0 0114.158-1.43s40.101-3.718 67.073-6.156c3.125-.281 6.076-.546 8.761-.785 0 0 24.834-2.488 51.814-5.397 0 0 14.182-1.793 7.386-4.454 0 0-8.613-3.636-31.357-6.851l-32.31-3.851c6.772.331 15.284.984 24.319 2.306 0 0 20.623 1.711 37.118 5.652 0 .009 11.123 2.579 11.123 4.802zm-337.531 67.244c-1.972 13.875-9.714 20.627-9.714 20.627-1.517 1.355-3.548 2.561-5.761 3.603l-93.25-31.511v-40.262l107.316 30.874c3.051 9.958 1.409 16.669 1.409 16.669z" fill="#F1DC9A"/><path d="M304.74 238.895s.688 6.503-3.945 7.536c0 0-6.184.86-8.082 3.256l-3.266 5.479-1.724.347-159.809 15.074-.423-19.834s.133-2.826 5.023-3.47l6.83-1.025s18.949-2.058 23.201-24.156c0 0 3.39-14.668-4.634-27.238l129.008-9.247s17.399-.645 18.045-3.859l-.224 57.137z" fill="#F1DC9A"/><path d="M490.668 204.624c-7.386 2.223-27.154 4.628-27.154 4.628l-34.2 3.942s-56.356 6.503-100.354 13.528c0 0-23.714 4.454-24.228 12.164l.215-57.137s0-6.553 5.156-8.098c0 0 11.082-4.62 53.356-9.124 0 0 35.053-3.471 62.506-5.784l49.228-4.884s18.351-1.843 18.351-4.075v51.055c.008.017.564 3.099-2.876 3.785z" fill="#F1DC9A"/><path d="M490.668 204.624v2.917l-3.258 2.57-.348 2.744h-4.467l-.514 4.793-14.605 1.198h-3.954v-9.594s19.761-2.405 27.146-4.628zm-6.88-126.05c4.286-13.322-16.486-14.264-16.486-14.264-38.411-2.917-103.536-5.57-103.536-5.57-34.623-.082-55.42-8.222-55.42-8.222-18.119-5.397-21.907-20.131-21.907-20.131l-4.294-14.735c-1.119-6.504-16.843-7.28-16.843-7.28l-27.983.561.406-.479c.746-1.116.995-2.09.995-2.9h26.325s16.843-1.025 18.907 9.255c0 0 2.553 18.057 14.58 26.569a22.996 22.996 0 006.557 3.24s23.366 9.255 58.08 9.255c0 0 24.228.339 100.345 5.479 0 0 17.705 1.025 19.769 6.685 0-.008 3.937 5.322.505 12.537zm-6.523 73.623c-26.98 2.918-51.814 5.397-51.814 5.397-2.694.239-5.636.504-8.761.785-1.285-3.835-6.449-3.355-6.449-3.355-32.799-.926-96.284 2.223-150.136 5.495l-4.592-14.933 113.657-7.437s27.154-1.885 36.777-1.372c0 0 5.968-.174 15.028.264l32.31 3.851c22.745 3.215 31.357 6.851 31.357 6.851 6.805 2.661-7.377 4.454-7.377 4.454z" fill="#F1DC9A"/><path d="M483.788 78.574c-.149.33-.323.653-.505.983 0 0-7.568 13.528-37.292 34.602 0 0-29.898 19.527-53.787 21.42l-23.2 1.71.174.86-113.657 7.437-2.072-6.76s-4.551-5.313-5.927-11.652L221.835 41.37s-1.882-.777-3.034.537c-.298.33-.547.81-.704 1.463l23.068 85.449s1.931 5.14 1.027 12.33l1.492 5.222-70.563 4.62 4.286-11.636c1.028-2.743-.688-3.429-.688-3.429-13.801-4.281-27.138-7.463-38.759-9.801L237.319 8.942l27.983-.562s15.724.777 16.843 7.28l4.293 14.735s3.788 14.735 21.908 20.131c0 0 20.797 8.14 55.419 8.223 0 0 65.134 2.652 103.537 5.57.008-.009 20.771.933 16.486 14.255zm-20.266 130.678v9.594l-8.248-.859s-6.357-2.058-8.421 8.57V296.8l-4.592-1.454-2.454-.777-4.293-71.095-6.192-10.28 34.2-3.942z" fill="#F1DC9A"/><path d="M177.415 139.355l-4.285 11.636-5.819 15.809-2.305 6.264-.513 1.397-3.913 10.635-80.418-21.073 1.972-5.57s.73-.586 1.401-1.38c.522-.62 1.011-1.363 1.094-2.041 0 0 1.89-1.289 11.779-33.147 0 0 .257-1.884 2.578-1.71 0 0 13.079 1.09 32.301 4.66 2.155.397 4.393.827 6.689 1.298 11.621 2.339 24.958 5.529 38.759 9.801-.008-.008 1.708.678.68 3.421zm-14.862 82.747c-4.252 22.098-23.2 24.156-23.2 24.156l-6.83 1.024c-4.899.645-5.023 3.471-5.023 3.471l.422 19.834-121.572-45.7v-9.297l.945.347 1.724 3.083 109.106 40.691s2.644.785 3.374-3.694c.074-.429.124-.909.157-1.446v-5.314s-.224-1.437 2.097-2.487c.564-.264 1.285-.496 2.197-.678 0 0 .771-.165 2.039-.479 2.81-.711 8.04-2.19 12.566-4.33 2.205-1.041 4.244-2.248 5.76-3.603 0 0 7.734-6.744 9.715-20.627 0 0 1.641-6.719-1.417-16.669a49.933 49.933 0 00-2.968-7.404l6.275 1.884c8.024 12.561 4.633 27.238 4.633 27.238z" fill="#F1DC9A"/><path d="M47.297 158.941v50.823l-18.858 1.157h-.008l-1.392 2.182-2.388-.711-8.247.322-5.67 3.041-4.384-.173v9.297l-1.07-.405v-16.52s.075-2.958 4.418-3.471c4.344-.512 15.293-1.066 20.49-9.247 0 0 6.921-8.223 5.968-21.933 0 0-.39-7.454-3.995-13.189.008.008 6.49-.537 15.136-1.173z" fill="#F1DC9A"/><path d="M151.637 192.972c1.293 2.619 2.263 5.099 2.967 7.404L47.296 169.502v-9.379l116.55 31.386-12.209 1.463zm-11.083 48.303c-4.526 2.14-9.756 3.619-12.566 4.33l-99.557-34.684 18.857-1.157 93.266 31.511z" fill="#F1DC9A"/><path d="M127.989 245.613c-1.26.314-2.039.48-2.039.48-.912.181-1.625.413-2.197.677l-96.714-33.667 1.392-2.182h.008l99.55 34.692zM333.611 4.529l-35.079 36.849c-12.027-8.504-14.58-26.569-14.58-26.569-2.064-10.28-18.907-9.256-18.907-9.256H238.72c.016-1.644-.987-2.57-.987-2.57l95.878 1.546zM247.953 161.28c-45.074 2.826-80.642 5.512-80.642 5.512l5.819-15.809 70.563-4.62 4.26 14.917zm168.745-2.893c-26.972 2.438-67.073 6.157-67.073 6.157-5.106.372-9.831.859-14.158 1.429.705-2.289-24.933-.661-24.933-.661-1.566-5.041-6.987-3.115-6.987-3.115l-41.9 3.289-1.525-4.95c53.852-3.273 117.337-6.421 150.136-5.496-.008-.008 5.155-.496 6.44 3.347zm-148.826 27.387l-9.955.678-3.722-13.082-2.039-7.149-1.45-5.123-4.244-14.917-1.691-5.933s1.285-4.24-.771-12.594l-25.198-85.747c1.152-1.314 3.033-.537 3.033-.537l25.688 85.813c1.376 6.338 5.926 11.652 5.926 11.652l2.072 6.76 4.592 14.933 1.526 4.95 2.387 7.776 3.846 12.52z" fill="#F1DC9A"/><path d="M249.429 166.436l-84.422 6.628 2.304-6.264s35.568-2.694 80.643-5.512l1.475 5.148zm8.488 20.016l-2.702.19-3.788-13.239-1.99-6.975-1.475-5.148-4.269-14.909-1.492-5.222c.904-7.19-1.028-12.33-1.028-12.33l-23.068-85.45c.158-.652.407-1.123.705-1.462l25.206 85.747c2.056 8.354.771 12.594.771 12.594l1.691 5.933 4.244 14.917 1.451 5.123 2.039 7.149 3.705 13.082zm-2.703.19l-5.537.38-2.685-.901-19.065 1.198-21.99-5.652-10.311.859-31.133-8.065 86.925-1.058 3.796 13.239z" fill="#F1DC9A"/><path d="M251.418 173.403l-86.925 1.058.514-1.397 84.422-6.628 1.989 6.967zm43.583 9.479c-1.832.958-7.12 1.504-7.12 1.504l-20.01 1.38-3.846-12.52 15.542-.19s3.349.462 4.128 1.752l11.306 8.074z" fill="#F1DC9A"/><path d="M335.459 165.965c-21.236 2.769-33.015 7.248-33.015 7.248-5.868 2.371-5.611 7.131-5.611 7.131.199 1.215-1.484 2.314-1.484 2.314a2.023 2.023 0 01-.356.224l-11.306-8.066c-.771-1.289-4.128-1.752-4.128-1.752l-15.542.19-2.387-7.776 41.9-3.289s5.421-1.918 6.988 3.115c.008 0 25.645-1.628 24.941.661zm-221.628 193.84v1.33c-1.334 0-2.603-.016-3.804-.041a91.431 91.431 0 01-2.736-.099c-6.987-.323-10.891-1.108-10.891-1.108-2.454-.901-1.028-2.19-1.028-2.19.986-1.157 3.216-.595 3.216-.595 2.13.554 5.404.843 8.256 1.008 1.152.058 2.246.108 3.158.141.63.017 1.177.033 1.608.033.679.017 1.069.017 1.069.017 1.285.553 1.152 1.504 1.152 1.504zm14.265-9.38v6.165l-18.045-7.884 11-1.033 7.045 2.752z" fill="#F1DC9A"/><path d="M126.977 369.903v-5.57l-2.967-1.586v1.751l-3.307.257v-3.636l-2.835-1.331v1.711h-3.258v-3.232l-3.008-1.314v1.314c-.431 0-.979-.016-1.609-.033l-1.127-86.672 12.873 5.008-.688 71.095-10.991 1.033 18.045 7.884v-6.165l-.597-71.748.597.223h3.431l.862 94.953-11.762-5.71c1.534-.571 3.341-.628 3.341-.628l.132.983 2.868 1.413z" fill="#F1DC9A"/><path d="M125.95 367.424l-1.981.083s-1.807.058-3.341.628a4.605 4.605 0 00-1.169.611s-5.246 1.025-7.692-1.066c0 0-.953-1.636 2.827-2.479.008.008.008.008.008 0a17.8 17.8 0 011.592-.256l4.517-.182 3.307-.256 1.55 1.025c-.008.008.547.479.382 1.892zm-6.275-3.297s-3.299.206-6.466.413c-2.039.124-4.02.248-5.047.322-2.62.174-4.037.041-5.198-.727 0 0-2.445-1.884 1.161-2.612h13.743l1.417.645c0-.017.779.545.39 1.959zm-36.314-39.494v1.413l-3.033 2.761v-1.802l3.033-2.372z" fill="#F1DC9A"/><path d="M70.406 326.724l-1.044 2.272-3.2 6.95s-1.417 3.405 1.028 4.686c2.445 1.289 4.186-1.223 4.385-1.859l3.448-6.983.008-.017.008-.008.158-.322s.762-1.835 3.896-2.463c.38-.074.795-.132 1.251-.174v-1.801l-9.938-.281zm-1.616 13.23a2.148 2.148 0 110-4.297 2.148 2.148 0 110 4.297zm23.01-74.813l-3.739 58.013-7.079 1.215-5.296.909c.016-.488.033-.992.041-1.504.564-22.817-1.202-65.285-1.202-65.285l17.274 6.652z" fill="#F1DC9A"/><path d="M75.727 323.774c-.008.512-.025 1.008-.041 1.504l-2.503-1.248-3.432-1.702-3.995-67.203 8.761 3.372c.008-.009 1.774 42.46 1.21 65.277z" fill="#F1DC9A"/><path d="M83.361 324.633l-3.034 2.372-9.921-.281.331-.331h.009l2.437-2.363 2.503 1.248 5.296-.909 2.38.264zm-3.033 12.016s-1.567 3.14-4.21 5.512c3.522-6.347-.216-9.727-1.095-10.404l.157-.323s.763-1.834 3.896-2.462c.522.677 2.305 3.371 1.252 7.677z" fill="#F1DC9A"/><path d="M76.125 342.169a12.97 12.97 0 01-1.6 1.232c-3.605 2.314-7.543 2.181-10.303 0 0 0-4.194-3.339-2.644-9.19 0 0 .547-2.793 3.465-4.305 1.077-.513 2.478-.868 4.318-.901l-3.2 6.95s-1.416 3.405 1.029 4.686c2.445 1.289 4.186-1.224 4.385-1.86l3.448-6.983.008-.016.008-.009c.862.661 4.609 4.041 1.086 10.396z" fill="#F1DC9A"/><path d="M70.737 326.393l-.34.331-1.044 2.272c-1.84.034-3.241.389-4.319.901-.074.033-.149.066-.215.099.124-.148 2.138-2.586 5.918-3.603zm.208 11.413c0 1.19-.962 2.148-2.156 2.148a2.148 2.148 0 110-4.297c1.194 0 2.156.959 2.156 2.149zm374.391-39.923v1.917l-3.216-2.942v-1.496l3.216 2.521zm15.061 9.495l-3.399-7.388h-.008l-1.102-2.405-10.544.306v1.917c.506.033.97.099 1.384.19 3.275.678 4.079 2.603 4.079 2.603l.174.364 3.663 7.421c.208.686 2.056 3.347 4.659 1.975 2.602-1.363 1.094-4.983 1.094-4.983zm-2.802 4.264a2.283 2.283 0 01-2.288-2.281 2.293 2.293 0 014.584 0 2.291 2.291 0 01-2.296 2.281zm9.881-92.796l-4.808 7.884-5.495 69.037-2.86.281-7.452.744v-70.244c2.064-10.627 8.422-8.57 8.422-8.57l8.247.86h3.946v.008z" fill="#F1DC9A"/><path d="M455.888 297.585l-10.552.298-3.216-2.521.141-.016 4.592 1.446 7.452-.736 1.218 1.166.365.363zm6.573 17.702c-2.943 2.322-7.12 2.462-10.95 0a12.77 12.77 0 01-1.077-.777c-4.766-7.95.547-11.553.547-11.553l3.664 7.421c.207.686 2.055 3.347 4.658 1.975 2.594-1.363 1.094-4.983 1.094-4.983l-3.398-7.388c2.088.033 3.647.471 4.816 1.074v.009c3.108 1.603 3.448 4.462 3.448 4.462 1.641 6.223-2.802 9.76-2.802 9.76z" fill="#F1DC9A"/><path d="M450.434 314.51c-3.183-2.545-5.098-6.388-5.098-6.388-1.301-5.322 1.385-8.132 1.385-8.132 3.274.678 4.078 2.603 4.078 2.603l.174.364c.008 0-5.305 3.611-.539 11.553zm11.389-13.446c-1.169-.603-2.735-1.041-4.816-1.074h-.008l-1.111-2.405-.365-.355c4.021 1.083 6.176 3.686 6.3 3.834zm-1.932 8.289a2.28 2.28 0 01-2.296 2.281 2.283 2.283 0 01-2.287-2.281 2.29 2.29 0 012.287-2.289 2.297 2.297 0 012.296 2.289zm-254.128 69.921v1.471l-3.788 3.463v-2.256l3.299-2.595.489-.083zm-18.244 18.892a2.699 2.699 0 01-2.702-2.694 2.703 2.703 0 015.404 0 2.689 2.689 0 01-2.702 2.694zm2.031-16.569l-1.318 2.851-4.004 8.693s-1.782 4.265 1.285 5.868c3.067 1.611 5.247-1.521 5.487-2.331l4.319-8.751.215-.422s.937-2.272 4.808-3.074a12.946 12.946 0 011.633-.223v-2.256l-12.425-.355z" fill="#F1DC9A"/><path d="M205.274 379.357l-3.299 2.595-12.425-.355.423-.422 1.931-1.859 3.258 1.859 10.112-1.818zm-3.299 14.669s-2.246 4.52-6.01 7.52c5.629-9.372-.646-13.619-.646-13.619l.207-.422s.937-2.272 4.808-3.074c.008 0 3.174 3.314 1.641 9.595z" fill="#F1DC9A"/><path d="M189.939 381.217l-.389.38-1.318 2.851c-2.379.066-4.418.586-5.753 1.289.158-.19 2.802-3.231 7.46-4.52z" fill="#F1DC9A"/><path d="M195.974 401.554a15.54 15.54 0 01-1.268.917c-4.509 2.901-9.433 2.744-12.898 0 0 0-5.246-4.181-3.315-11.503 0 0 .398-3.314 3.979-5.223 0 0 .008 0 .008-.008 1.334-.703 3.373-1.215 5.752-1.289l-4.012 8.693s-1.782 4.265 1.285 5.868c3.067 1.611 5.247-1.529 5.496-2.331l4.318-8.751s6.275 4.248.655 13.627z" fill="#F1DC9A"/><path d="M190.23 395.472a2.7 2.7 0 01-2.703 2.694 2.699 2.699 0 01-2.702-2.694 2.704 2.704 0 012.702-2.694 2.699 2.699 0 012.703 2.694z" fill="#F1DC9A"/></svg>