<svg width="208" height="66" fill="none" xmlns="http://www.w3.org/2000/svg"><path d="M97.562 16.184l-3.252.006-1.721.008v2.633h25.8v-2.634l-20.827-.013zM10.36 30.751c-2.978-1.353-5.548-2.522-5.548-5.2 0-3.386 3.034-4.527 4.419-4.527 1.973 0 3.62.957 5.505 3.2l.327.388.248-.446c.412-.742 1.002-2.402 1.027-2.473l.097-.272-.757-.437c-2.001-1.152-3.728-2.148-6.512-2.148-2.872 0-5.219.848-6.784 2.452C1.054 22.646.386 24.458.45 26.532c.138 4.7 3.978 6.372 7.362 7.846 3.056 1.331 5.694 2.481 5.694 5.434 0 3.014-2.121 5.04-5.279 5.04-2.856 0-5.836-2.55-6.728-3.851l-.412-.602-.636 2.09L0 43.998l.177.129c1.622 1.381 4.703 2.993 8.05 2.99 5.701-.005 9.385-3.335 9.385-8.485 0-4.581-3.854-6.334-7.252-7.88zm25.226-8.964c2.944.022 5.22 1.4 5.243 1.413l.438.269.216-1.203.262-1.522-.281-.096c-1.43-.488-3.621-1.134-6.13-1.114-10.5.09-14.195 7.321-14.153 14.06.04 6.628 4.464 13.779 14.08 13.813 2.428.01 3.259-.1 5.926-.786l.263-.067v-2.987l-.495.22c-2.3 1.023-3.237 1.229-5.568 1.225-5.724-.01-9.026-4.104-9.056-11.24-.022-4.983 1.851-7.888 3.424-9.45 1.642-1.624 3.768-2.547 5.83-2.535zm84.166 11.155c-.546-3.918-1.355-12.282-1.363-12.367l-.031-.315h-1.781l-10.845 19.828L94.4 20.265l-.44-.006-1.034.002-.313.001-.022.31c-.01.094-1.045 9.478-1.442 12.372L89.145 46.84h3.37l.02-.328c.16-2.936.558-6.889.793-9.25l.098-.97.207-2.148.62-5.994c.98 1.692 10.531 18.238 10.531 18.238h.661s9.049-16.382 9.952-18.02c.216 1.562.463 3.957.674 5.997l.204 1.992c.271 2.535.841 9.101.913 10.192l.019.325h4.498l-1.954-13.932zm-41.9 13.898h4.899l-.01-.355c0-.085-.187-8.555-.187-13.919l.193-12.27-.353-.006-4.537-.031.005.358.2 11.949c.012 5.367-.197 13.832-.2 13.918l-.01.356zm63.132 10.053c-1.461-.702-2.721-1.307-2.764-2.65-.019-.6.18-1.157.546-1.526.402-.406 1.001-.604 1.776-.588 1.925.033 2.473.883 2.736 1.293l.551.81.191-.78.406-1.519-.195-.146c-1.195-.884-2.85-1.285-3.885-1.285-3.697 0-4.471 2.22-4.471 4.083 0 2.641 1.955 3.547 3.678 4.343 1.493.691 2.784 1.288 2.784 2.855 0 1.563-.92 2.497-2.46 2.497-1.728 0-2.753-.976-3.31-1.796l-.416-.613-.699 2.17.153.153c.452.453 1.825 1.832 4.606 1.785 2.194-.036 4.547-1.932 4.547-4.699 0-2.573-2.007-3.536-3.774-4.386v-.001zM70.225 46.84l-.01-.356c0-.079-.2-8.069-.201-13.13-.004-4.912.177-12.66.178-12.738l.01-.356h-4.886l.096 6.111s.068 4.229.08 4.824c-1.658.028-9.38.147-14.806 0l.08-4.823.096-6.117-.354.005h-4.534l.01.355c.002.078.181 7.827.179 12.739-.001 5.061-.2 13.051-.202 13.13l-.009.356H50.8l-.12-12.81c6.397-.09 8.305-.09 14.817 0l-.119 12.81h4.848zm88.552-13.891c-.544-3.918-1.355-12.283-1.364-12.367l-.03-.314h-1.781l-10.845 19.825-11.333-19.822-.44-.007-1.033.004-.313.002-.02.307c-.013.095-1.046 9.478-1.445 12.373l-2.001 13.897 3.37.002.018-.33c.162-2.944.56-6.905.796-9.27l.096-.949.208-2.16.621-5.982 10.529 18.238h.661l9.953-18.018c.216 1.561.464 3.958.672 5.999l.206 1.987c.269 2.535.841 9.103.912 10.191l.02.326h4.497l-1.954-13.932zm18.81 11.273l-4.682-.07-.098-8.175.022-2.205c.612 0 5.692.013 5.692.013l4.376.135.001-.358v-2.39l-4.439.148-5.645-.041.013-.89.03-7.467 4.989.03 3.483.036 2.074.054-.001-.357v-2.407l-.36.006-6.796.12-7.889-.126v.357l.096 11.956-.1 14.307h.358l8.309-.058 6.883.06v-2.78l-6.316.102zm30.412 2.288v-2.662l-.354.006c-7.576.117-10.394.12-11.238.114l-.141-11.384.198-12.297-.357-.003-4.536-.006.007.356.197 11.951c.02 5.364-.156 13.834-.157 13.918l-.008.356 9.191-.031 1.365.008 5.834.023-.001-.35zm-94.043 7.477l.065-3.136-.37.006h-1.705l.046 2.625.057 2.65.078 4.944-10.289-10.27-.155.005-.931.022.045 7.42-.004.79-.077 3.5-.062 3.135.367-.007h1.705l-.045-2.605-.056-2.67-.089-4.788 10.333 10.083 1.053.017-.047-7.438.006-.784.075-3.499zm-32.928-3.096h-.367l-1.078.006-1.445-.009.004.368.074 6.863-.078 7.536h2.89l-.08-7.536.08-7.228zm13.357-37.882l-1.952-4.167 2.827 2.326.216-.313 4.981-7.23 5.031 7.25s4.481-6.405 4.993-7.133l5.241 7.462 2.646-2.135-1.775 3.94H94.385zm27.968-10.431l-6.196 4.953-4.878-7.48L109.35 0l-.105.177-3.802 6.406-3.902-6.535h-1.882l-4.88 7.48-6.138-4.938-1.381 1.327 5.326 11.424h25.674l5.363-11.413-1.27-1.35zM68.232 57.81l.056-5.375.967-.005c.061.01.13.026.165.026 2.07 0 3.375.98 3.404 2.553v.045c0 .619-.232 1.178-.67 1.621-.69.7-1.841 1.084-3.235 1.084l-.687.052v-.001zm3.129-6.92l-3.408-.083-1.09.006-1.445-.009.006.369.074 6.862-.079 7.536.366.003h2.526l-.12-6.31 2.411-.025c2.024-.022 4.874-1.348 4.874-4.235 0-2.26-2.212-4.068-4.115-4.113zm20.938 7.48l-3.184.004c.782-1.866 1.26-3.063 1.53-3.767A264.203 264.203 0 0092.3 58.37zm-.887-7.553h-.97l-3.09 7.156-3.507 7.683h2.303l.098-.207c.11-.233.903-2.328 1.132-2.988l1.001-2.38 4.693-.007.887 2.04 1.474 3.573.24-.003 2.727-.004-6.988-14.863zm33.964 13.813c-3.462-.072-5.184-2.262-5.112-6.51.052-3.024 1.977-6.153 5.108-6.153 3.131 0 5.052 3.129 5.103 6.153.07 4.245-1.647 6.434-5.104 6.51h.005zm.029-14.128l-.039.021c-4.907-.002-8.213 3.053-8.228 7.604-.007 2.166.77 4.139 2.19 5.555 1.495 1.493 3.653 2.315 6.072 2.318 2.434-.003 4.516-.796 6.022-2.298 1.423-1.42 2.204-3.406 2.197-5.595-.015-4.549-3.316-7.605-8.214-7.605z" fill="#000"/></svg>