<svg width="206" height="96" fill="none" xmlns="http://www.w3.org/2000/svg"><path d="M89.934 21.245c0 2.954-.892 6.847-2.956 10.364-2.064 3.47-4.973 6.8-8.679 9.942-3.988 3.424-8.538 5.44-13.887 5.44-3.002 0-9.664-2.11-9.476-5.815.422-7.832 5.817-6.8 6.192-7.081.376-.329-7.975-.704-8.397 7.081-.376 6.613 8.116 8.395 13.558 8.395 3.002 0 6.005-.188 9.007-1.172 3.003-1.032 5.912-2.11 8.351-3.94 3.378-2.58 5.958-5.393 7.6-8.535 1.69-3.142 2.346-7.223 2.346-10.88 0-2.44-.375-4.597-1.079-6.473-2.346-6.284-9.007-10.083-15.153-12.052-22.847-7.316-60.942 8.3-62.396 31.421-.188 3.236 1.173 5.863 3.565 7.832 2.393 1.97 5.536 3.002 9.43 3.002 5.49 0 9.43-1.22 14.215-4.362 4.129-2.72 13.98-14.07 15.529-21.62.328-1.547.422-2.72.234-3.892-.14-.985-.375 5.721-5.02 11.865-3.94 5.252-7.834 8.63-12.432 11.63-4.597 3.002-9.383 4.034-13.276 4.034-2.91 0-5.302-.797-7.085-2.392-1.83-1.594-2.814-3.611-2.767-6.003.75-20.541 38.657-36.721 58.83-29.64 6.099 2.111 13.746 5.582 13.746 12.85z" fill="#231F20" stroke="#231F20"/><path d="M74.5 24.528c14.59-18.76 19-17.4 18.577-17.634-3.471-1.923-16.607 11.912-18.906 14.492-4.598 5.111-10.462 12.146-17.358 20.682-.892 1.078-1.924 2.72-2.862 3.61-8.21 10.459-16.56 21.949-22.19 25.982-5.677 4.033-9.149 5.487-15.013 5.487-3.66 0-8.773-2.86-11.213-4.268-3.565-2.063 4.457 6.894 15.013 5.769 6.052-.657 10.837-2.86 16.701-6.66C44.286 67.44 51.652 57.31 57.61 48.305c1.69-2.251 12.714-18.431 16.89-23.777zM63.663 58.153L55.17 68.658c-1.032 1.407-1.548 2.204-1.548 2.439 0 .375.235.563.657.563.281 0 .985-.329 2.064-.938 1.079-.657 2.064-1.266 2.862-1.923a38.325 38.325 0 002.486-2.064l3.378-3.001a19.814 19.814 0 015.958-4.22c2.393-1.126 4.691-1.736 6.756-1.736 1.22 0 1.782.422 1.782 1.313 0 .281-.093.797-.328 1.454l2.017-2.392h4.129l-7.6 9.192c-1.736 2.11-2.58 3.33-2.58 3.658 0 .375.234.516.703.516.516 0 1.689-.61 3.425-1.782a38.325 38.325 0 004.269-3.33c.14-.14.375-.328.516-.422l9.524-7.879v.047l.047-.047h3.987l-4.269 5.346.094.047c2.533-2.157 4.55-3.705 6.052-4.596 1.548-.89 2.862-1.36 4.081-1.36.704 0 1.22.188 1.642.61.423.422.61.985.61 1.688 0 1.267-.61 2.58-1.782 3.893l-4.457 4.877a86.165 86.165 0 00-1.502 1.782.873.873 0 00-.187.516c0 .375.234.563.657.563.61 0 1.829-.563 3.659-1.688a42.596 42.596 0 004.316-3.049c1.22-.984 2.768-2.063 3.8-3.189 1.501-1.688 3.378-3.048 5.583-4.174 2.205-1.125 4.175-1.688 5.958-1.688 1.407 0 2.111.563 2.111 1.642 0 .703-.188 1.453-.516 2.204-.328.75-.938 1.782-1.83 3.048.376.61.986.891 1.736.891.235 0 .563-.047.938-.14l.141.562c-.469.094-.797.188-1.126.188-.844 0-1.548-.328-2.205-.938-.234.234-.938.985-2.064 2.251-1.267 1.36-2.674 2.532-4.316 3.47-1.642.938-3.003 1.407-4.129 1.407-.844 0-1.548-.281-2.111-.89-.563-.564-.797-1.314-.797-2.205 0-1.079.281-2.157.891-3.236l-.704.61c-.985.844-2.533 1.97-4.597 3.33-2.299 1.5-4.035 2.25-5.208 2.25-.61 0-1.172-.234-1.642-.656-.469-.422-.703-.938-.703-1.548 0-.75.234-1.5.656-2.298.423-.797 1.173-1.735 2.206-2.813l3.049-3.236c1.126-1.267 1.83-2.017 2.017-2.298.188-.235.282-.47.282-.704 0-.234-.188-.375-.61-.375-1.736 0-4.457 1.548-8.023 4.596-2.861 2.439-4.972 4.455-6.286 6.097l-2.346 2.86h-4.269l9.242-11.161-7.084 5.909c-2.158 1.829-3.753 3.095-4.785 3.799-2.017 1.36-3.612 2.063-4.692 2.063-.703 0-1.266-.234-1.735-.703-.423-.47-.657-1.032-.657-1.782 0-.61.188-1.407.61-2.345-1.314 1.266-2.44 2.204-3.378 2.767-2.017 1.36-3.753 2.016-5.207 2.016-.704 0-1.314-.281-1.83-.844s-.75-1.266-.75-2.016c0-1.032.328-2.11.938-3.19l-.235.188c-.798.844-1.924 1.829-3.425 2.955-2.627 1.97-4.644 2.954-5.958 2.954a1.74 1.74 0 01-1.454-.75c-.422-.47-.61-1.079-.61-1.736 0-.75.188-1.5.61-2.25.375-.75 1.079-1.783 2.064-3.002l5.301-6.519 4.223.047zm.844-6.425c.47 0 .938.188 1.314.516.375.375.563.75.563 1.22 0 .609-.235 1.172-.751 1.688a2.624 2.624 0 01-1.924.797c-.563 0-1.032-.188-1.407-.563-.375-.375-.563-.797-.516-1.313a2.307 2.307 0 01.938-1.688c.563-.47 1.173-.704 1.783-.657zm13.699 6.847c-.47-.047-1.314.281-2.44.891a22.668 22.668 0 00-3.518 2.439 40.476 40.476 0 00-5.348 5.252c-1.596 1.876-2.346 3.19-2.346 3.94 0 .375.234.563.75.563.61 0 1.408-.235 2.44-.75 1.032-.517 2.064-1.173 3.143-2.017 2.158-1.689 4.035-3.47 5.63-5.394 1.595-1.922 2.44-3.33 2.44-4.22 0-.423-.235-.657-.751-.704zm42.551 6.05c-.047-.328-.094-.61-.094-.797 0-.75.235-1.454.657-2.11a3.636 3.636 0 011.736-1.408c.141-.328.234-.61.234-.89 0-.61-.281-.892-.797-.892-.657 0-1.642.47-2.956 1.36-1.313.891-2.768 2.11-4.363 3.565-1.548 1.453-2.862 2.907-3.941 4.314-1.032 1.407-1.595 2.439-1.595 3.095 0 .235.094.422.329.61.234.188.516.235.797.235.845 0 1.877-.329 3.097-1.032 1.219-.657 2.486-1.595 3.753-2.767.985-.844 2.017-1.923 3.143-3.283z" fill="#231F20" stroke="#231F20"/><path d="M36.875 83.244h3.237v6.096h5.02v1.97h-8.257v-8.066zm9.852 0h3.237v8.066h-3.237v-8.066zm5.583 0h7.975v1.735h-4.738v1.407h4.035v1.641h-4.035v3.283H52.31v-8.066zm9.712 0H70.7v1.688h-5.442v1.313h5.02v1.641h-5.02v1.595h5.582v1.83h-8.82v-8.067zm14.871 5.393l3.096-.14c.047.374.188.703.422.89.329.329.798.47 1.408.47.469 0 .797-.094 1.079-.235.234-.188.375-.375.375-.563 0-.188-.094-.375-.375-.563-.235-.187-.798-.328-1.642-.469-1.408-.234-2.44-.563-3.05-.985-.61-.422-.891-.938-.891-1.547 0-.422.14-.797.469-1.173.328-.375.797-.656 1.407-.89.61-.188 1.502-.329 2.58-.329 1.314 0 2.346.188 3.05.563.704.375 1.126.985 1.267 1.829l-3.05.14c-.093-.375-.234-.61-.516-.797-.234-.14-.61-.234-1.079-.234-.375 0-.657.047-.844.187-.188.141-.282.282-.282.47 0 .14.094.234.235.328.14.093.516.187 1.079.281 1.407.234 2.44.469 3.05.703.61.235 1.078.516 1.313.892.281.375.422.75.422 1.219 0 .516-.188.985-.563 1.454-.375.422-.891.75-1.548.985-.657.234-1.501.328-2.533.328-1.783 0-3.003-.281-3.707-.797a2.837 2.837 0 01-1.172-2.017zm17.545 1.36H90.78l-.516 1.313H86.98l3.94-8.113h3.52l3.94 8.113h-3.378l-.563-1.313zm-.703-1.782l-1.173-2.908-1.126 2.908h2.299zm3.8-4.971h3.378l2.346 5.815 2.298-5.815h3.284l-3.893 8.066h-3.472l-3.94-8.066zm12.385 0h8.632v1.688h-5.395v1.313h5.02v1.641h-5.02v1.595h5.536v1.83h-8.773v-8.067zm10.557 8.066v-8.113h5.395c.985 0 1.782.047 2.298.187.517.141.939.376 1.267.75.329.376.469.798.469 1.314 0 .469-.14.844-.375 1.172-.235.329-.61.61-1.032.798-.282.14-.657.234-1.126.328.375.094.657.188.844.281.141.047.282.188.516.422.235.235.376.376.47.516l1.548 2.345h-3.66l-1.735-2.486c-.235-.328-.423-.515-.61-.61-.235-.14-.516-.187-.798-.187h-.281v3.283h-3.19zm3.284-4.83h1.36c.141 0 .422-.047.845-.094a1.31 1.31 0 00.516-.235.604.604 0 00.187-.469c0-.281-.094-.469-.328-.61-.235-.14-.61-.187-1.22-.187h-1.407v1.595h.047zm12.337 2.157l3.096-.14c.047.374.188.703.423.89.328.329.797.47 1.407.47.469 0 .798-.094 1.079-.235.235-.188.375-.375.375-.563 0-.188-.093-.375-.375-.563-.234-.187-.797-.328-1.642-.469-1.407-.234-2.439-.563-3.049-.985-.61-.422-.892-.938-.892-1.547 0-.422.141-.797.47-1.173.328-.375.797-.656 1.407-.89.61-.188 1.501-.329 2.58-.329 1.314 0 2.346.188 3.05.563.703.375 1.126.985 1.266 1.829l-3.049.14c-.094-.375-.235-.61-.516-.797-.282-.14-.61-.234-1.079-.234-.376 0-.657.047-.845.187-.187.141-.281.282-.281.47 0 .14.094.234.234.328.141.093.516.187 1.079.281 1.408.234 2.44.469 3.05.703.61.235 1.079.516 1.313.892.282.375.423.75.423 1.219 0 .516-.188.985-.563 1.454-.376.422-.892.75-1.548.985-.657.234-1.502.328-2.534.328-1.783 0-3.002-.281-3.706-.797-.657-.516-1.079-1.22-1.173-2.017zm10.087-5.393h3.566l2.111 2.72 2.111-2.72h3.565l-4.081 4.69v3.376h-3.237v-3.377l-4.035-4.69zm11.212 5.393l3.096-.14c.047.374.188.703.423.89.328.329.797.47 1.407.47.469 0 .797-.094 1.079-.235.235-.188.375-.375.375-.563 0-.188-.094-.375-.375-.563-.235-.187-.798-.328-1.642-.469-1.407-.234-2.44-.563-3.049-.985-.61-.422-.892-.938-.892-1.547 0-.422.141-.797.469-1.173.329-.375.798-.656 1.408-.89.61-.188 1.501-.329 2.58-.329 1.314 0 2.346.188 3.049.563.704.375 1.126.985 1.267 1.829l-3.049.14c-.094-.375-.235-.61-.516-.797-.235-.14-.61-.234-1.079-.234-.376 0-.657.047-.845.187-.187.141-.281.282-.281.47 0 .14.094.234.234.328.141.093.516.187 1.079.281 1.408.234 2.44.469 3.05.703.61.235 1.079.516 1.313.892.282.375.423.75.423 1.219 0 .516-.188.985-.563 1.454-.376.422-.892.75-1.549.985-.656.234-1.501.328-2.533.328-1.783 0-3.002-.281-3.706-.797a2.837 2.837 0 01-1.173-2.017zm10.369-5.393h9.805v1.97h-3.284v6.096h-3.237v-6.097h-3.284v-1.97zm11.259 0h8.679v1.688h-5.442v1.313h5.02v1.641h-5.02v1.595h5.583v1.83h-8.82v-8.067zm10.508 0h4.269l1.642 4.924 1.642-4.924h4.223v8.066h-2.628v-6.19l-2.064 6.19h-2.392l-2.018-6.19v6.19h-2.674v-8.066z" fill="#B29634" stroke="#B29634"/><path d="M198.776 75.365c1.407 0 2.486 1.126 2.486 2.532 0 1.407-1.126 2.533-2.486 2.533a2.523 2.523 0 01-2.534-2.533c.047-1.407 1.173-2.532 2.534-2.532zm0 .375c-1.126 0-2.018.938-2.018 2.157 0 1.22.892 2.158 2.018 2.158 1.125 0 2.017-.938 2.017-2.158.047-1.172-.892-2.157-2.017-2.157zm-.47 3.658h-.469v-2.814c.235-.047.469-.047.798-.047.422 0 .704.094.891.235.188.14.282.328.282.563 0 .375-.235.61-.563.703.234.047.422.282.469.704.047.422.141.61.187.703h-.469a2.267 2.267 0 01-.187-.703c-.047-.376-.235-.516-.61-.516h-.329v1.172zm0-1.594h.329c.375 0 .704-.141.704-.47 0-.234-.188-.515-.704-.515h-.329v.985z" fill="#231F20" stroke="#231F20"/></svg>