<svg xmlns="http://www.w3.org/2000/svg" width="2560" height="1423" fill="none"><path d="M0 0l161.067 19.936 79.466 8.394L320 36.724l80 6.296 80 6.295 80 4.197 80 4.197 80 2.099 40 2.098 40 2.099 81.067 1.049L960 64.004h80l80-2.098 80-4.197 80-4.197 160-8.394 158.4-3.148 160.8 1.05 160.8 4.197 160 9.443 160 11.542 160 16.788 160 18.886V1423l-80-14.69-80-13.64-78.93-13.12-81.07-12.06-80-9.45-80-9.44-80-7.34-80-8.4-160-9.44-79.47-2.1-80.53-1.05-80 1.05h-80l-80 2.1-80 5.25-40 2.09-40 2.1-40 2.1-40 2.1-40 2.1H800l-80-2.1-80-3.15-160-8.39-160-12.59-160-15.09L0 1282.4V0z" fill="gray"/></svg>